<svg width="480" height="400" viewBox="0 0 480 400" fill="none" xmlns="http://www.w3.org/2000/svg">
<path d="M0 20C0 8.95431 8.95431 0 20 0H460C471.046 0 480 8.95431 480 20V400H0V20Z" fill="#06080A"/>
<rect x="32" y="12" width="11" height="11" rx="5.5" fill="white"/>
<rect x="68" y="152" width="89" height="20" rx="10" fill="#525D67"/>
<path fill-rule="evenodd" clip-rule="evenodd" d="M47 17.5C47 14.4624 49.4624 12 52.5 12H89.5C92.5376 12 95 14.4624 95 17.5C95 20.5376 92.5376 23 89.5 23H52.5C49.4624 23 47 20.5376 47 17.5ZM68 75.5C68 70.8056 71.8056 67 76.5 67H180.045C184.74 67 188.545 70.8056 188.545 75.5C188.545 80.1944 184.74 84 180.045 84H76.5C71.8056 84 68 80.1944 68 75.5ZM80 236C73.3726 236 68 241.373 68 248V362C68 368.627 73.3726 374 80 374H225C231.627 374 237 368.627 237 362V248C237 241.373 231.627 236 225 236H80ZM68 101.773C68 97.0785 71.8056 93.2729 76.5 93.2729H263.5C268.194 93.2729 272 97.0785 272 101.773C272 106.467 268.194 110.273 263.5 110.273H76.5C71.8056 110.273 68 106.467 68 101.773ZM77.2727 120C72.1515 120 68 124.152 68 129.273C68 134.394 72.1515 138.545 77.2727 138.545H217.909C223.03 138.545 227.182 134.394 227.182 129.273C227.182 124.152 223.03 120 217.909 120H77.2727ZM401 17.5C401 14.4624 403.462 12 406.5 12H442.5C445.538 12 448 14.4624 448 17.5C448 20.5376 445.538 23 442.5 23H406.5C403.462 23 401 20.5376 401 17.5ZM270.5 294C267.462 294 265 296.462 265 299.5C265 302.538 267.462 305 270.5 305H336.5C339.538 305 342 302.538 342 299.5C342 296.462 339.538 294 336.5 294H270.5ZM265 315.5C265 312.462 267.462 310 270.5 310H390.5C393.538 310 396 312.462 396 315.5C396 318.538 393.538 321 390.5 321H270.5C267.462 321 265 318.538 265 315.5ZM270.5 327C267.462 327 265 329.462 265 332.5C265 335.538 267.462 338 270.5 338H362.5C365.538 338 368 335.538 368 332.5C368 329.462 365.538 327 362.5 327H270.5Z" fill="url(#paint0_linear_5348_124)"/>
<rect x="265" y="271" width="27" height="5" rx="2.5" fill="white"/>
<path d="M92.902 165V159.182H95.1293C95.5497 159.182 95.8991 159.248 96.1776 159.381C96.4579 159.511 96.6671 159.69 96.8054 159.918C96.9455 160.145 97.0156 160.402 97.0156 160.69C97.0156 160.927 96.9702 161.13 96.8793 161.298C96.7884 161.465 96.6662 161.6 96.5128 161.705C96.3594 161.809 96.188 161.884 95.9986 161.929V161.986C96.205 161.997 96.4029 162.061 96.5923 162.176C96.7836 162.29 96.9399 162.451 97.0611 162.659C97.1823 162.867 97.2429 163.119 97.2429 163.415C97.2429 163.716 97.17 163.987 97.0241 164.227C96.8783 164.466 96.6586 164.654 96.3651 164.793C96.0715 164.931 95.7022 165 95.2571 165H92.902ZM93.956 164.119H95.0895C95.4721 164.119 95.7476 164.046 95.9162 163.901C96.0866 163.753 96.1719 163.563 96.1719 163.332C96.1719 163.16 96.1293 163.005 96.044 162.866C95.9588 162.726 95.8376 162.616 95.6804 162.537C95.5232 162.455 95.3357 162.415 95.1179 162.415H93.956V164.119ZM93.956 161.656H94.9986C95.1804 161.656 95.3442 161.623 95.4901 161.557C95.6359 161.489 95.7505 161.393 95.8338 161.27C95.919 161.145 95.9616 160.997 95.9616 160.827C95.9616 160.601 95.8821 160.416 95.723 160.27C95.5658 160.124 95.3319 160.051 95.0213 160.051H93.956V161.656ZM100.018 165.085C99.5916 165.085 99.2223 164.991 98.9098 164.804C98.5973 164.616 98.3549 164.354 98.1825 164.017C98.0121 163.68 97.9268 163.286 97.9268 162.835C97.9268 162.384 98.0121 161.99 98.1825 161.651C98.3549 161.312 98.5973 161.048 98.9098 160.861C99.2223 160.673 99.5916 160.58 100.018 160.58C100.444 160.58 100.813 160.673 101.126 160.861C101.438 161.048 101.68 161.312 101.85 161.651C102.022 161.99 102.109 162.384 102.109 162.835C102.109 163.286 102.022 163.68 101.85 164.017C101.68 164.354 101.438 164.616 101.126 164.804C100.813 164.991 100.444 165.085 100.018 165.085ZM100.023 164.261C100.254 164.261 100.448 164.198 100.603 164.071C100.758 163.942 100.874 163.77 100.95 163.554C101.027 163.338 101.066 163.098 101.066 162.832C101.066 162.565 101.027 162.324 100.95 162.108C100.874 161.89 100.758 161.717 100.603 161.588C100.448 161.459 100.254 161.395 100.023 161.395C99.7867 161.395 99.5897 161.459 99.4325 161.588C99.2772 161.717 99.1607 161.89 99.0831 162.108C99.0073 162.324 98.9695 162.565 98.9695 162.832C98.9695 163.098 99.0073 163.338 99.0831 163.554C99.1607 163.77 99.2772 163.942 99.4325 164.071C99.5897 164.198 99.7867 164.261 100.023 164.261ZM105.161 160.636V161.432H102.652V160.636H105.161ZM103.271 159.591H104.3V163.688C104.3 163.826 104.321 163.932 104.362 164.006C104.406 164.078 104.463 164.127 104.533 164.153C104.603 164.18 104.68 164.193 104.766 164.193C104.83 164.193 104.889 164.188 104.942 164.179C104.997 164.17 105.038 164.161 105.067 164.153L105.24 164.957C105.185 164.976 105.107 164.997 105.004 165.02C104.904 165.043 104.781 165.056 104.635 165.06C104.377 165.067 104.145 165.028 103.939 164.943C103.732 164.856 103.569 164.722 103.447 164.54C103.328 164.358 103.269 164.131 103.271 163.858V159.591ZM107.276 165.088C107 165.088 106.751 165.039 106.529 164.94C106.309 164.84 106.135 164.692 106.006 164.497C105.879 164.302 105.816 164.062 105.816 163.776C105.816 163.529 105.862 163.326 105.952 163.165C106.043 163.004 106.167 162.875 106.325 162.778C106.482 162.682 106.659 162.609 106.856 162.56C107.055 162.509 107.26 162.472 107.472 162.449C107.728 162.422 107.935 162.399 108.094 162.378C108.254 162.355 108.369 162.321 108.441 162.276C108.515 162.228 108.552 162.155 108.552 162.057V162.04C108.552 161.826 108.488 161.66 108.362 161.543C108.235 161.425 108.052 161.366 107.813 161.366C107.561 161.366 107.362 161.421 107.214 161.531C107.068 161.641 106.969 161.771 106.918 161.92L105.958 161.784C106.034 161.519 106.159 161.297 106.333 161.119C106.507 160.939 106.72 160.805 106.972 160.716C107.224 160.625 107.503 160.58 107.808 160.58C108.018 160.58 108.227 160.604 108.435 160.653C108.644 160.703 108.834 160.784 109.006 160.898C109.179 161.009 109.317 161.162 109.421 161.355C109.527 161.548 109.58 161.79 109.58 162.08V165H108.592V164.401H108.558C108.495 164.522 108.407 164.635 108.293 164.741C108.182 164.846 108.04 164.93 107.87 164.994C107.701 165.057 107.504 165.088 107.276 165.088ZM107.543 164.332C107.75 164.332 107.929 164.292 108.08 164.21C108.232 164.127 108.348 164.017 108.43 163.881C108.513 163.744 108.555 163.596 108.555 163.435V162.92C108.522 162.947 108.468 162.972 108.39 162.994C108.314 163.017 108.229 163.037 108.134 163.054C108.04 163.071 107.946 163.086 107.853 163.099C107.76 163.113 107.68 163.124 107.612 163.134C107.458 163.154 107.321 163.188 107.2 163.236C107.078 163.283 106.983 163.349 106.913 163.435C106.843 163.518 106.808 163.626 106.808 163.759C106.808 163.948 106.877 164.091 107.015 164.188C107.153 164.284 107.329 164.332 107.543 164.332ZM107.018 160.105L106.396 160.091C106.396 159.754 106.483 159.49 106.657 159.298C106.831 159.107 107.046 159.011 107.302 159.011C107.425 159.011 107.532 159.032 107.623 159.074C107.714 159.114 107.797 159.16 107.873 159.213C107.951 159.266 108.026 159.313 108.1 159.355C108.174 159.395 108.255 159.415 108.344 159.415C108.452 159.415 108.538 159.374 108.6 159.293C108.665 159.211 108.698 159.107 108.7 158.98L109.31 159.006C109.308 159.345 109.22 159.608 109.046 159.795C108.872 159.981 108.658 160.075 108.404 160.077C108.268 160.079 108.153 160.059 108.06 160.017C107.968 159.975 107.886 159.928 107.816 159.875C107.748 159.822 107.679 159.776 107.609 159.736C107.539 159.694 107.456 159.673 107.362 159.673C107.261 159.673 107.179 159.713 107.114 159.793C107.05 159.872 107.018 159.976 107.018 160.105ZM112.518 165.085C112.092 165.085 111.722 164.991 111.41 164.804C111.097 164.616 110.855 164.354 110.683 164.017C110.512 163.68 110.427 163.286 110.427 162.835C110.427 162.384 110.512 161.99 110.683 161.651C110.855 161.312 111.097 161.048 111.41 160.861C111.722 160.673 112.092 160.58 112.518 160.58C112.944 160.58 113.313 160.673 113.626 160.861C113.938 161.048 114.18 161.312 114.35 161.651C114.522 161.99 114.609 162.384 114.609 162.835C114.609 163.286 114.522 163.68 114.35 164.017C114.18 164.354 113.938 164.616 113.626 164.804C113.313 164.991 112.944 165.085 112.518 165.085ZM112.523 164.261C112.754 164.261 112.948 164.198 113.103 164.071C113.258 163.942 113.374 163.77 113.45 163.554C113.527 163.338 113.566 163.098 113.566 162.832C113.566 162.565 113.527 162.324 113.45 162.108C113.374 161.89 113.258 161.717 113.103 161.588C112.948 161.459 112.754 161.395 112.523 161.395C112.287 161.395 112.09 161.459 111.933 161.588C111.777 161.717 111.661 161.89 111.583 162.108C111.507 162.324 111.469 162.565 111.469 162.832C111.469 163.098 111.507 163.338 111.583 163.554C111.661 163.77 111.777 163.942 111.933 164.071C112.09 164.198 112.287 164.261 112.523 164.261ZM115.425 165V164.347L117.675 161.526V161.489H115.499V160.636H118.933V161.338L116.791 164.111V164.148H119.007V165H115.425ZM121.229 165.088C120.953 165.088 120.704 165.039 120.482 164.94C120.263 164.84 120.088 164.692 119.96 164.497C119.833 164.302 119.769 164.062 119.769 163.776C119.769 163.529 119.815 163.326 119.906 163.165C119.996 163.004 120.121 162.875 120.278 162.778C120.435 162.682 120.612 162.609 120.809 162.56C121.008 162.509 121.213 162.472 121.425 162.449C121.681 162.422 121.888 162.399 122.048 162.378C122.207 162.355 122.322 162.321 122.394 162.276C122.468 162.228 122.505 162.155 122.505 162.057V162.04C122.505 161.826 122.442 161.66 122.315 161.543C122.188 161.425 122.005 161.366 121.766 161.366C121.514 161.366 121.315 161.421 121.167 161.531C121.021 161.641 120.923 161.771 120.871 161.92L119.911 161.784C119.987 161.519 120.112 161.297 120.286 161.119C120.46 160.939 120.674 160.805 120.925 160.716C121.177 160.625 121.456 160.58 121.761 160.58C121.971 160.58 122.18 160.604 122.388 160.653C122.597 160.703 122.787 160.784 122.96 160.898C123.132 161.009 123.27 161.162 123.374 161.355C123.48 161.548 123.533 161.79 123.533 162.08V165H122.545V164.401H122.511C122.448 164.522 122.36 164.635 122.246 164.741C122.135 164.846 121.994 164.93 121.823 164.994C121.655 165.057 121.457 165.088 121.229 165.088ZM121.496 164.332C121.703 164.332 121.882 164.292 122.033 164.21C122.185 164.127 122.301 164.017 122.383 163.881C122.466 163.744 122.508 163.596 122.508 163.435V162.92C122.476 162.947 122.421 162.972 122.343 162.994C122.267 163.017 122.182 163.037 122.087 163.054C121.993 163.071 121.899 163.086 121.806 163.099C121.713 163.113 121.633 163.124 121.565 163.134C121.411 163.154 121.274 163.188 121.153 163.236C121.031 163.283 120.936 163.349 120.866 163.435C120.796 163.518 120.761 163.626 120.761 163.759C120.761 163.948 120.83 164.091 120.968 164.188C121.106 164.284 121.282 164.332 121.496 164.332ZM126.187 165.077C125.844 165.077 125.537 164.989 125.266 164.812C124.996 164.636 124.781 164.381 124.624 164.045C124.467 163.71 124.388 163.303 124.388 162.824C124.388 162.339 124.468 161.93 124.627 161.597C124.788 161.261 125.005 161.009 125.278 160.838C125.55 160.666 125.854 160.58 126.19 160.58C126.445 160.58 126.656 160.623 126.82 160.71C126.985 160.795 127.116 160.899 127.212 161.02C127.309 161.139 127.384 161.252 127.437 161.358H127.479V159.182H128.511V165H127.499V164.312H127.437C127.384 164.419 127.307 164.531 127.207 164.651C127.106 164.768 126.974 164.868 126.809 164.952C126.644 165.035 126.437 165.077 126.187 165.077ZM126.474 164.233C126.692 164.233 126.877 164.174 127.031 164.057C127.184 163.937 127.3 163.772 127.38 163.56C127.46 163.348 127.499 163.1 127.499 162.818C127.499 162.536 127.46 162.291 127.38 162.082C127.302 161.874 127.187 161.712 127.033 161.597C126.882 161.481 126.695 161.423 126.474 161.423C126.245 161.423 126.053 161.483 125.9 161.602C125.746 161.722 125.631 161.886 125.553 162.097C125.476 162.307 125.437 162.547 125.437 162.818C125.437 163.091 125.476 163.334 125.553 163.548C125.633 163.76 125.749 163.928 125.903 164.051C126.058 164.172 126.248 164.233 126.474 164.233ZM130.862 165.088C130.586 165.088 130.337 165.039 130.115 164.94C129.895 164.84 129.721 164.692 129.592 164.497C129.465 164.302 129.402 164.062 129.402 163.776C129.402 163.529 129.447 163.326 129.538 163.165C129.629 163.004 129.753 162.875 129.911 162.778C130.068 162.682 130.245 162.609 130.442 162.56C130.641 162.509 130.846 162.472 131.058 162.449C131.314 162.422 131.521 162.399 131.68 162.378C131.839 162.355 131.955 162.321 132.027 162.276C132.101 162.228 132.138 162.155 132.138 162.057V162.04C132.138 161.826 132.074 161.66 131.947 161.543C131.821 161.425 131.638 161.366 131.399 161.366C131.147 161.366 130.947 161.421 130.8 161.531C130.654 161.641 130.555 161.771 130.504 161.92L129.544 161.784C129.62 161.519 129.745 161.297 129.919 161.119C130.093 160.939 130.306 160.805 130.558 160.716C130.81 160.625 131.089 160.58 131.393 160.58C131.604 160.58 131.813 160.604 132.021 160.653C132.23 160.703 132.42 160.784 132.592 160.898C132.765 161.009 132.903 161.162 133.007 161.355C133.113 161.548 133.166 161.79 133.166 162.08V165H132.178V164.401H132.143C132.081 164.522 131.993 164.635 131.879 164.741C131.768 164.846 131.626 164.93 131.456 164.994C131.287 165.057 131.089 165.088 130.862 165.088ZM131.129 164.332C131.336 164.332 131.515 164.292 131.666 164.21C131.818 164.127 131.934 164.017 132.016 163.881C132.099 163.744 132.141 163.596 132.141 163.435V162.92C132.108 162.947 132.054 162.972 131.976 162.994C131.9 163.017 131.815 163.037 131.72 163.054C131.625 163.071 131.532 163.086 131.439 163.099C131.346 163.113 131.266 163.124 131.197 163.134C131.044 163.154 130.907 163.188 130.786 163.236C130.664 163.283 130.569 163.349 130.499 163.435C130.429 163.518 130.393 163.626 130.393 163.759C130.393 163.948 130.463 164.091 130.601 164.188C130.739 164.284 130.915 164.332 131.129 164.332Z" fill="white"/>
<path d="M287.717 15.3636H288.523L289.603 17.9986H289.645L290.725 15.3636H291.531V19H290.899V16.5018H290.865L289.86 18.9893H289.388L288.383 16.4964H288.349V19H287.717V15.3636ZM293.427 19.0533C293.154 19.0533 292.918 18.9964 292.719 18.8828C292.521 18.768 292.369 18.6058 292.263 18.3963C292.156 18.1856 292.103 17.9376 292.103 17.6523C292.103 17.3718 292.156 17.1256 292.263 16.9137C292.37 16.7006 292.521 16.5349 292.714 16.4165C292.906 16.297 293.133 16.2372 293.394 16.2372C293.562 16.2372 293.72 16.2644 293.869 16.3189C294.02 16.3722 294.152 16.455 294.267 16.5675C294.383 16.6799 294.474 16.8232 294.541 16.9972C294.607 17.17 294.64 17.3759 294.64 17.6151V17.8121H292.405V17.3789H294.024C294.023 17.2558 293.996 17.1463 293.944 17.0504C293.892 16.9534 293.819 16.877 293.726 16.8214C293.633 16.7657 293.526 16.7379 293.402 16.7379C293.271 16.7379 293.156 16.7699 293.056 16.8338C292.957 16.8965 292.879 16.9794 292.824 17.0824C292.769 17.1842 292.741 17.296 292.74 17.418V17.7962C292.74 17.9548 292.769 18.0909 292.827 18.2045C292.885 18.317 292.966 18.4034 293.07 18.4638C293.175 18.523 293.296 18.5526 293.436 18.5526C293.53 18.5526 293.614 18.5395 293.69 18.5135C293.766 18.4863 293.832 18.4466 293.887 18.3945C293.943 18.3424 293.985 18.2779 294.013 18.201L294.613 18.2685C294.575 18.4271 294.503 18.5656 294.397 18.6839C294.291 18.8011 294.156 18.8923 293.992 18.9574C293.827 19.0213 293.639 19.0533 293.427 19.0533ZM295.827 17.402V19H295.184V16.2727H295.798V16.7362H295.83C295.893 16.5835 295.993 16.4621 296.13 16.3722C296.269 16.2822 296.44 16.2372 296.643 16.2372C296.831 16.2372 296.995 16.2775 297.135 16.358C297.276 16.4384 297.385 16.555 297.462 16.7077C297.54 16.8604 297.578 17.0457 297.577 17.2635V19H296.934V17.3629C296.934 17.1806 296.887 17.038 296.792 16.935C296.699 16.832 296.569 16.7805 296.404 16.7805C296.291 16.7805 296.191 16.8054 296.104 16.8551C296.017 16.9036 295.949 16.9741 295.899 17.0664C295.851 17.1587 295.827 17.2706 295.827 17.402ZM299.969 17.853V16.2727H300.612V19H299.988V18.5153H299.96C299.898 18.668 299.797 18.7929 299.656 18.8899C299.517 18.987 299.345 19.0355 299.14 19.0355C298.961 19.0355 298.803 18.9959 298.666 18.9165C298.53 18.8361 298.423 18.7195 298.346 18.5668C298.269 18.4129 298.231 18.227 298.231 18.0092V16.2727H298.873V17.9098C298.873 18.0826 298.921 18.2199 299.015 18.3217C299.11 18.4235 299.234 18.4744 299.388 18.4744C299.483 18.4744 299.575 18.4513 299.664 18.4052C299.752 18.359 299.825 18.2904 299.882 18.1992C299.94 18.1069 299.969 17.9915 299.969 17.853ZM301.237 19V18.5916L302.643 16.8285V16.8054H301.283V16.2727H303.43V16.7113L302.091 18.4442V18.4673H303.476V19H301.237ZM304.865 19.055C304.692 19.055 304.537 19.0243 304.398 18.9627C304.261 18.9 304.152 18.8076 304.071 18.6857C303.992 18.5638 303.952 18.4135 303.952 18.2347C303.952 18.0808 303.981 17.9536 304.038 17.853C304.094 17.7524 304.172 17.6719 304.27 17.6115C304.368 17.5511 304.479 17.5056 304.602 17.4748C304.727 17.4428 304.855 17.4197 304.988 17.4055C305.147 17.389 305.277 17.3742 305.376 17.3612C305.476 17.3469 305.548 17.3256 305.593 17.2972C305.639 17.2676 305.662 17.2221 305.662 17.1605V17.1499C305.662 17.0161 305.623 16.9125 305.543 16.8391C305.464 16.7657 305.35 16.729 305.201 16.729C305.043 16.729 304.918 16.7634 304.826 16.832C304.735 16.9007 304.673 16.9818 304.641 17.0753L304.041 16.9901C304.089 16.8243 304.167 16.6858 304.276 16.5746C304.384 16.4621 304.518 16.3781 304.675 16.3224C304.833 16.2656 305.007 16.2372 305.197 16.2372C305.328 16.2372 305.459 16.2526 305.589 16.2834C305.72 16.3142 305.839 16.3651 305.946 16.4361C306.054 16.5059 306.141 16.6012 306.206 16.7219C306.272 16.8427 306.305 16.9936 306.305 17.1747V19H305.687V18.6254H305.666C305.627 18.7011 305.572 18.7721 305.501 18.8384C305.431 18.9035 305.343 18.9562 305.236 18.9964C305.131 19.0355 305.007 19.055 304.865 19.055ZM305.032 18.5827C305.161 18.5827 305.273 18.5573 305.368 18.5064C305.462 18.4543 305.535 18.3857 305.586 18.3004C305.638 18.2152 305.664 18.1223 305.664 18.0217V17.7003C305.644 17.7169 305.61 17.7322 305.561 17.7464C305.514 17.7607 305.46 17.7731 305.401 17.7837C305.342 17.7944 305.283 17.8039 305.225 17.8121C305.167 17.8204 305.117 17.8275 305.075 17.8335C304.979 17.8465 304.893 17.8678 304.817 17.8974C304.741 17.927 304.682 17.9684 304.638 18.0217C304.594 18.0737 304.572 18.1412 304.572 18.2241C304.572 18.3424 304.615 18.4318 304.702 18.4922C304.788 18.5526 304.898 18.5827 305.032 18.5827ZM307.963 19.0479C307.749 19.0479 307.557 18.9929 307.388 18.8828C307.219 18.7727 307.085 18.6129 306.987 18.4034C306.889 18.1939 306.839 17.9394 306.839 17.6399C306.839 17.3369 306.889 17.0812 306.989 16.8729C307.089 16.6634 307.225 16.5053 307.395 16.3988C307.566 16.2911 307.756 16.2372 307.965 16.2372C308.125 16.2372 308.256 16.2644 308.359 16.3189C308.462 16.3722 308.544 16.4367 308.604 16.5124C308.665 16.587 308.712 16.6574 308.745 16.7237H308.771V15.3636H309.416V19H308.784V18.5703H308.745C308.712 18.6366 308.664 18.707 308.601 18.7816C308.538 18.855 308.455 18.9177 308.352 18.9698C308.249 19.0219 308.12 19.0479 307.963 19.0479ZM308.143 18.5206C308.279 18.5206 308.395 18.4839 308.491 18.4105C308.587 18.3359 308.659 18.2324 308.709 18.0998C308.759 17.9672 308.784 17.8127 308.784 17.6364C308.784 17.46 308.759 17.3067 308.709 17.1765C308.661 17.0463 308.588 16.9451 308.493 16.8729C308.398 16.8007 308.281 16.7646 308.143 16.7646C308 16.7646 307.88 16.8018 307.784 16.8764C307.688 16.951 307.616 17.054 307.567 17.1854C307.519 17.3168 307.495 17.4671 307.495 17.6364C307.495 17.8068 307.519 17.9589 307.567 18.0927C307.617 18.2253 307.69 18.33 307.786 18.407C307.883 18.4827 308.002 18.5206 308.143 18.5206ZM310.886 19.055C310.713 19.055 310.557 19.0243 310.419 18.9627C310.281 18.9 310.172 18.8076 310.092 18.6857C310.013 18.5638 309.973 18.4135 309.973 18.2347C309.973 18.0808 310.001 17.9536 310.058 17.853C310.115 17.7524 310.193 17.6719 310.291 17.6115C310.389 17.5511 310.5 17.5056 310.623 17.4748C310.747 17.4428 310.876 17.4197 311.008 17.4055C311.168 17.389 311.297 17.3742 311.397 17.3612C311.496 17.3469 311.569 17.3256 311.614 17.2972C311.66 17.2676 311.683 17.2221 311.683 17.1605V17.1499C311.683 17.0161 311.643 16.9125 311.564 16.8391C311.485 16.7657 311.37 16.729 311.221 16.729C311.064 16.729 310.939 16.7634 310.847 16.832C310.755 16.9007 310.694 16.9818 310.662 17.0753L310.062 16.9901C310.109 16.8243 310.187 16.6858 310.296 16.5746C310.405 16.4621 310.538 16.3781 310.696 16.3224C310.853 16.2656 311.027 16.2372 311.218 16.2372C311.349 16.2372 311.48 16.2526 311.61 16.2834C311.74 16.3142 311.859 16.3651 311.967 16.4361C312.075 16.5059 312.161 16.6012 312.226 16.7219C312.292 16.8427 312.326 16.9936 312.326 17.1747V19H311.708V18.6254H311.686C311.647 18.7011 311.592 18.7721 311.521 18.8384C311.451 18.9035 311.363 18.9562 311.257 18.9964C311.151 19.0355 311.028 19.055 310.886 19.055ZM311.052 18.5827C311.181 18.5827 311.293 18.5573 311.388 18.5064C311.483 18.4543 311.556 18.3857 311.606 18.3004C311.659 18.2152 311.685 18.1223 311.685 18.0217V17.7003C311.664 17.7169 311.63 17.7322 311.582 17.7464C311.534 17.7607 311.481 17.7731 311.422 17.7837C311.363 17.7944 311.304 17.8039 311.246 17.8121C311.188 17.8204 311.138 17.8275 311.095 17.8335C310.999 17.8465 310.913 17.8678 310.838 17.8974C310.762 17.927 310.702 17.9684 310.658 18.0217C310.614 18.0737 310.593 18.1412 310.593 18.2241C310.593 18.3424 310.636 18.4318 310.722 18.4922C310.809 18.5526 310.919 18.5827 311.052 18.5827Z" fill="#6B898D"/>
<path d="M322.232 15.3636V19H321.574V15.3636H322.232ZM323.56 17.402V19H322.917V16.2727H323.532V16.7362H323.563C323.626 16.5835 323.726 16.4621 323.864 16.3722C324.002 16.2822 324.173 16.2372 324.377 16.2372C324.565 16.2372 324.729 16.2775 324.869 16.358C325.009 16.4384 325.118 16.555 325.195 16.7077C325.273 16.8604 325.312 17.0457 325.311 17.2635V19H324.668V17.3629C324.668 17.1806 324.621 17.038 324.526 16.935C324.432 16.832 324.303 16.7805 324.137 16.7805C324.025 16.7805 323.925 16.8054 323.837 16.8551C323.751 16.9036 323.682 16.9741 323.633 17.0664C323.584 17.1587 323.56 17.2706 323.56 17.402ZM327.326 16.2727V16.7699H325.758V16.2727H327.326ZM326.145 15.6193H326.788V18.1797C326.788 18.2661 326.801 18.3324 326.827 18.3786C326.854 18.4235 326.89 18.4543 326.934 18.4709C326.977 18.4875 327.026 18.4957 327.079 18.4957C327.119 18.4957 327.156 18.4928 327.189 18.4869C327.224 18.4809 327.25 18.4756 327.267 18.4709L327.376 18.9734C327.341 18.9852 327.292 18.9982 327.228 19.0124C327.166 19.0266 327.089 19.0349 326.997 19.0373C326.836 19.042 326.691 19.0178 326.562 18.9645C326.433 18.91 326.331 18.826 326.255 18.7124C326.181 18.5987 326.144 18.4567 326.145 18.2862V15.6193ZM329.042 19.0533C328.768 19.0533 328.532 18.9964 328.333 18.8828C328.135 18.768 327.983 18.6058 327.877 18.3963C327.77 18.1856 327.717 17.9376 327.717 17.6523C327.717 17.3718 327.77 17.1256 327.877 16.9137C327.984 16.7006 328.135 16.5349 328.328 16.4165C328.521 16.297 328.747 16.2372 329.008 16.2372C329.176 16.2372 329.335 16.2644 329.484 16.3189C329.634 16.3722 329.767 16.455 329.881 16.5675C329.997 16.6799 330.089 16.8232 330.155 16.9972C330.221 17.17 330.254 17.3759 330.254 17.6151V17.8121H328.019V17.3789H329.638C329.637 17.2558 329.61 17.1463 329.558 17.0504C329.506 16.9534 329.433 16.877 329.34 16.8214C329.248 16.7657 329.14 16.7379 329.017 16.7379C328.885 16.7379 328.77 16.7699 328.67 16.8338C328.571 16.8965 328.493 16.9794 328.438 17.0824C328.383 17.1842 328.356 17.296 328.354 17.418V17.7962C328.354 17.9548 328.383 18.0909 328.441 18.2045C328.499 18.317 328.58 18.4034 328.685 18.4638C328.789 18.523 328.911 18.5526 329.05 18.5526C329.144 18.5526 329.229 18.5395 329.304 18.5135C329.38 18.4863 329.446 18.4466 329.501 18.3945C329.557 18.3424 329.599 18.2779 329.627 18.201L330.228 18.2685C330.19 18.4271 330.118 18.5656 330.011 18.6839C329.906 18.8011 329.771 18.8923 329.606 18.9574C329.442 19.0213 329.253 19.0533 329.042 19.0533ZM330.798 19V16.2727H331.421V16.7273H331.45C331.499 16.5698 331.585 16.4485 331.705 16.3633C331.827 16.2769 331.966 16.2337 332.123 16.2337C332.158 16.2337 332.198 16.2354 332.242 16.239C332.287 16.2414 332.324 16.2455 332.353 16.2514V16.8427C332.326 16.8332 332.283 16.8249 332.224 16.8178C332.166 16.8095 332.11 16.8054 332.055 16.8054C331.938 16.8054 331.833 16.8308 331.739 16.8817C331.647 16.9315 331.574 17.0007 331.521 17.0895C331.467 17.1783 331.441 17.2807 331.441 17.3967V19H330.798ZM333.423 17.402V19H332.78V16.2727H333.395V16.7362H333.427C333.489 16.5835 333.59 16.4621 333.727 16.3722C333.865 16.2822 334.036 16.2372 334.24 16.2372C334.428 16.2372 334.592 16.2775 334.732 16.358C334.873 16.4384 334.982 16.555 335.059 16.7077C335.137 16.8604 335.175 17.0457 335.174 17.2635V19H334.531V17.3629C334.531 17.1806 334.484 17.038 334.389 16.935C334.296 16.832 334.166 16.7805 334 16.7805C333.888 16.7805 333.788 16.8054 333.7 16.8551C333.614 16.9036 333.546 16.9741 333.496 17.0664C333.447 17.1587 333.423 17.2706 333.423 17.402ZM335.827 19V16.2727H336.47V19H335.827ZM336.15 15.8857C336.049 15.8857 335.961 15.8519 335.888 15.7844C335.814 15.7158 335.778 15.6335 335.778 15.5376C335.778 15.4406 335.814 15.3583 335.888 15.2908C335.961 15.2222 336.049 15.1879 336.15 15.1879C336.253 15.1879 336.341 15.2222 336.413 15.2908C336.487 15.3583 336.523 15.4406 336.523 15.5376C336.523 15.6335 336.487 15.7158 336.413 15.7844C336.341 15.8519 336.253 15.8857 336.15 15.8857ZM337.774 17.402V19H337.131V16.2727H337.745V16.7362H337.777C337.84 16.5835 337.94 16.4621 338.077 16.3722C338.216 16.2822 338.387 16.2372 338.591 16.2372C338.779 16.2372 338.943 16.2775 339.082 16.358C339.223 16.4384 339.332 16.555 339.409 16.7077C339.487 16.8604 339.526 17.0457 339.525 17.2635V19H338.882V17.3629C338.882 17.1806 338.834 17.038 338.74 16.935C338.646 16.832 338.517 16.7805 338.351 16.7805C338.238 16.7805 338.138 16.8054 338.051 16.8551C337.964 16.9036 337.896 16.9741 337.847 17.0664C337.798 17.1587 337.774 17.2706 337.774 17.402ZM340.821 17.402V19H340.178V15.3636H340.806V16.7362H340.838C340.902 16.5823 341.001 16.4609 341.135 16.3722C341.27 16.2822 341.442 16.2372 341.65 16.2372C341.839 16.2372 342.004 16.2769 342.145 16.3562C342.286 16.4355 342.395 16.5515 342.472 16.7042C342.55 16.8569 342.589 17.0433 342.589 17.2635V19H341.946V17.3629C341.946 17.1795 341.899 17.0368 341.804 16.935C341.711 16.832 341.579 16.7805 341.41 16.7805C341.297 16.7805 341.195 16.8054 341.105 16.8551C341.016 16.9036 340.946 16.9741 340.895 17.0664C340.846 17.1587 340.821 17.2706 340.821 17.402ZM344.029 19.055C343.856 19.055 343.701 19.0243 343.562 18.9627C343.425 18.9 343.316 18.8076 343.235 18.6857C343.156 18.5638 343.116 18.4135 343.116 18.2347C343.116 18.0808 343.145 17.9536 343.202 17.853C343.259 17.7524 343.336 17.6719 343.434 17.6115C343.533 17.5511 343.643 17.5056 343.766 17.4748C343.891 17.4428 344.019 17.4197 344.152 17.4055C344.311 17.389 344.441 17.3742 344.54 17.3612C344.64 17.3469 344.712 17.3256 344.757 17.2972C344.803 17.2676 344.826 17.2221 344.826 17.1605V17.1499C344.826 17.0161 344.787 16.9125 344.707 16.8391C344.628 16.7657 344.514 16.729 344.365 16.729C344.207 16.729 344.082 16.7634 343.99 16.832C343.899 16.9007 343.837 16.9818 343.805 17.0753L343.205 16.9901C343.253 16.8243 343.331 16.6858 343.44 16.5746C343.549 16.4621 343.682 16.3781 343.839 16.3224C343.997 16.2656 344.171 16.2372 344.361 16.2372C344.493 16.2372 344.623 16.2526 344.754 16.2834C344.884 16.3142 345.003 16.3651 345.11 16.4361C345.218 16.5059 345.305 16.6012 345.37 16.7219C345.436 16.8427 345.469 16.9936 345.469 17.1747V19H344.851V18.6254H344.83C344.791 18.7011 344.736 18.7721 344.665 18.8384C344.595 18.9035 344.507 18.9562 344.4 18.9964C344.295 19.0355 344.171 19.055 344.029 19.055ZM344.196 18.5827C344.325 18.5827 344.437 18.5573 344.532 18.5064C344.626 18.4543 344.699 18.3857 344.75 18.3004C344.802 18.2152 344.828 18.1223 344.828 18.0217V17.7003C344.808 17.7169 344.774 17.7322 344.725 17.7464C344.678 17.7607 344.625 17.7731 344.565 17.7837C344.506 17.7944 344.448 17.8039 344.39 17.8121C344.332 17.8204 344.281 17.8275 344.239 17.8335C344.143 17.8465 344.057 17.8678 343.981 17.8974C343.905 17.927 343.846 17.9684 343.802 18.0217C343.758 18.0737 343.736 18.1412 343.736 18.2241C343.736 18.3424 343.779 18.4318 343.866 18.4922C343.952 18.5526 344.062 18.5827 344.196 18.5827Z" fill="#6B898D"/>
<path d="M357.575 19V15.3636H358.234V18.4478H359.836V19H357.575ZM361.586 19.0533C361.313 19.0533 361.077 18.9964 360.878 18.8828C360.68 18.768 360.528 18.6058 360.422 18.3963C360.315 18.1856 360.262 17.9376 360.262 17.6523C360.262 17.3718 360.315 17.1256 360.422 16.9137C360.529 16.7006 360.68 16.5349 360.873 16.4165C361.066 16.297 361.292 16.2372 361.553 16.2372C361.721 16.2372 361.879 16.2644 362.029 16.3189C362.179 16.3722 362.311 16.455 362.426 16.5675C362.542 16.6799 362.633 16.8232 362.7 16.9972C362.766 17.17 362.799 17.3759 362.799 17.6151V17.8121H360.564V17.3789H362.183C362.182 17.2558 362.155 17.1463 362.103 17.0504C362.051 16.9534 361.978 16.877 361.885 16.8214C361.792 16.7657 361.685 16.7379 361.562 16.7379C361.43 16.7379 361.315 16.7699 361.215 16.8338C361.116 16.8965 361.038 16.9794 360.983 17.0824C360.928 17.1842 360.901 17.296 360.899 17.418V17.7962C360.899 17.9548 360.928 18.0909 360.986 18.2045C361.044 18.317 361.125 18.4034 361.23 18.4638C361.334 18.523 361.456 18.5526 361.595 18.5526C361.689 18.5526 361.773 18.5395 361.849 18.5135C361.925 18.4863 361.991 18.4466 362.046 18.3945C362.102 18.3424 362.144 18.2779 362.172 18.201L362.773 18.2685C362.735 18.4271 362.662 18.5656 362.556 18.6839C362.451 18.8011 362.316 18.8923 362.151 18.9574C361.987 19.0213 361.798 19.0533 361.586 19.0533ZM365.773 19.0533C365.501 19.0533 365.267 18.9935 365.071 18.8739C364.877 18.7544 364.728 18.5893 364.622 18.3786C364.518 18.1667 364.466 17.9228 364.466 17.647C364.466 17.37 364.519 17.1256 364.626 16.9137C364.732 16.7006 364.883 16.5349 365.077 16.4165C365.272 16.297 365.503 16.2372 365.769 16.2372C365.991 16.2372 366.187 16.2781 366.357 16.3597C366.529 16.4402 366.665 16.5545 366.767 16.7024C366.869 16.8492 366.927 17.0208 366.941 17.2173H366.327C366.302 17.0859 366.243 16.9764 366.149 16.8888C366.057 16.8001 365.933 16.7557 365.778 16.7557C365.647 16.7557 365.531 16.7912 365.432 16.8622C365.332 16.9321 365.255 17.0327 365.199 17.1641C365.145 17.2955 365.118 17.4529 365.118 17.6364C365.118 17.8222 365.145 17.982 365.199 18.1158C365.254 18.2483 365.33 18.3507 365.428 18.4229C365.528 18.494 365.644 18.5295 365.778 18.5295C365.873 18.5295 365.957 18.5117 366.032 18.4762C366.108 18.4395 366.171 18.3868 366.222 18.3182C366.273 18.2495 366.308 18.1661 366.327 18.0678H366.941C366.926 18.2608 366.869 18.4318 366.771 18.581C366.672 18.7289 366.539 18.8449 366.369 18.929C366.2 19.0118 366.001 19.0533 365.773 19.0533ZM368.659 19.0533C368.392 19.0533 368.161 18.9947 367.966 18.8775C367.771 18.7603 367.619 18.5964 367.512 18.3857C367.405 18.175 367.352 17.9287 367.352 17.647C367.352 17.3653 367.405 17.1185 367.512 16.9066C367.619 16.6947 367.771 16.5302 367.966 16.413C368.161 16.2958 368.392 16.2372 368.659 16.2372C368.925 16.2372 369.156 16.2958 369.351 16.413C369.546 16.5302 369.697 16.6947 369.804 16.9066C369.912 17.1185 369.965 17.3653 369.965 17.647C369.965 17.9287 369.912 18.175 369.804 18.3857C369.697 18.5964 369.546 18.7603 369.351 18.8775C369.156 18.9947 368.925 19.0533 368.659 19.0533ZM368.662 18.5384C368.807 18.5384 368.927 18.4987 369.024 18.4194C369.121 18.3389 369.194 18.2312 369.241 18.0962C369.289 17.9613 369.314 17.811 369.314 17.6452C369.314 17.4783 369.289 17.3274 369.241 17.1925C369.194 17.0563 369.121 16.948 369.024 16.8675C368.927 16.7871 368.807 16.7468 368.662 16.7468C368.514 16.7468 368.391 16.7871 368.293 16.8675C368.196 16.948 368.123 17.0563 368.074 17.1925C368.027 17.3274 368.003 17.4783 368.003 17.6452C368.003 17.811 368.027 17.9613 368.074 18.0962C368.123 18.2312 368.196 18.3389 368.293 18.4194C368.391 18.4987 368.514 18.5384 368.662 18.5384ZM371.154 17.402V19H370.511V16.2727H371.125V16.7362H371.157C371.22 16.5835 371.32 16.4621 371.457 16.3722C371.596 16.2822 371.767 16.2372 371.97 16.2372C372.159 16.2372 372.323 16.2775 372.462 16.358C372.603 16.4384 372.712 16.555 372.789 16.7077C372.867 16.8604 372.906 17.0457 372.904 17.2635V19H372.262V17.3629C372.262 17.1806 372.214 17.038 372.12 16.935C372.026 16.832 371.896 16.7805 371.731 16.7805C371.618 16.7805 371.518 16.8054 371.431 16.8551C371.344 16.9036 371.276 16.9741 371.226 17.0664C371.178 17.1587 371.154 17.2706 371.154 17.402ZM374.92 16.2727V16.7699H373.352V16.2727H374.92ZM373.739 15.6193H374.382V18.1797C374.382 18.2661 374.395 18.3324 374.421 18.3786C374.448 18.4235 374.483 18.4543 374.527 18.4709C374.571 18.4875 374.62 18.4957 374.673 18.4957C374.713 18.4957 374.75 18.4928 374.783 18.4869C374.817 18.4809 374.843 18.4756 374.861 18.4709L374.969 18.9734C374.935 18.9852 374.886 18.9982 374.822 19.0124C374.759 19.0266 374.682 19.0349 374.591 19.0373C374.43 19.042 374.285 19.0178 374.156 18.9645C374.027 18.91 373.925 18.826 373.849 18.7124C373.774 18.5987 373.738 18.4567 373.739 18.2862V15.6193ZM376.242 19.055C376.069 19.055 375.914 19.0243 375.775 18.9627C375.638 18.9 375.529 18.8076 375.448 18.6857C375.369 18.5638 375.329 18.4135 375.329 18.2347C375.329 18.0808 375.358 17.9536 375.415 17.853C375.471 17.7524 375.549 17.6719 375.647 17.6115C375.745 17.5511 375.856 17.5056 375.979 17.4748C376.104 17.4428 376.232 17.4197 376.365 17.4055C376.524 17.389 376.654 17.3742 376.753 17.3612C376.853 17.3469 376.925 17.3256 376.97 17.2972C377.016 17.2676 377.039 17.2221 377.039 17.1605V17.1499C377.039 17.0161 377 16.9125 376.92 16.8391C376.841 16.7657 376.727 16.729 376.578 16.729C376.42 16.729 376.295 16.7634 376.203 16.832C376.112 16.9007 376.05 16.9818 376.018 17.0753L375.418 16.9901C375.465 16.8243 375.544 16.6858 375.653 16.5746C375.761 16.4621 375.895 16.3781 376.052 16.3224C376.209 16.2656 376.383 16.2372 376.574 16.2372C376.705 16.2372 376.836 16.2526 376.966 16.2834C377.097 16.3142 377.216 16.3651 377.323 16.4361C377.431 16.5059 377.517 16.6012 377.583 16.7219C377.649 16.8427 377.682 16.9936 377.682 17.1747V19H377.064V18.6254H377.043C377.004 18.7011 376.949 18.7721 376.878 18.8384C376.808 18.9035 376.72 18.9562 376.613 18.9964C376.508 19.0355 376.384 19.055 376.242 19.055ZM376.409 18.5827C376.538 18.5827 376.65 18.5573 376.744 18.5064C376.839 18.4543 376.912 18.3857 376.963 18.3004C377.015 18.2152 377.041 18.1223 377.041 18.0217V17.7003C377.021 17.7169 376.987 17.7322 376.938 17.7464C376.891 17.7607 376.837 17.7731 376.778 17.7837C376.719 17.7944 376.66 17.8039 376.602 17.8121C376.544 17.8204 376.494 17.8275 376.452 17.8335C376.356 17.8465 376.27 17.8678 376.194 17.8974C376.118 17.927 376.059 17.9684 376.015 18.0217C375.971 18.0737 375.949 18.1412 375.949 18.2241C375.949 18.3424 375.992 18.4318 376.079 18.4922C376.165 18.5526 376.275 18.5827 376.409 18.5827ZM379.518 19.0533C379.246 19.0533 379.012 18.9935 378.817 18.8739C378.622 18.7544 378.473 18.5893 378.367 18.3786C378.263 18.1667 378.211 17.9228 378.211 17.647C378.211 17.37 378.264 17.1256 378.371 16.9137C378.477 16.7006 378.628 16.5349 378.822 16.4165C379.017 16.297 379.248 16.2372 379.514 16.2372C379.736 16.2372 379.932 16.2781 380.102 16.3597C380.274 16.4402 380.41 16.5545 380.512 16.7024C380.614 16.8492 380.672 17.0208 380.686 17.2173H380.072C380.047 17.0859 379.988 16.9764 379.894 16.8888C379.802 16.8001 379.678 16.7557 379.523 16.7557C379.392 16.7557 379.276 16.7912 379.177 16.8622C379.078 16.9321 379 17.0327 378.944 17.1641C378.89 17.2955 378.863 17.4529 378.863 17.6364C378.863 17.8222 378.89 17.982 378.944 18.1158C378.999 18.2483 379.075 18.3507 379.173 18.4229C379.273 18.494 379.39 18.5295 379.523 18.5295C379.618 18.5295 379.703 18.5117 379.777 18.4762C379.853 18.4395 379.916 18.3868 379.967 18.3182C380.018 18.2495 380.053 18.1661 380.072 18.0678H380.686C380.671 18.2608 380.614 18.4318 380.516 18.581C380.418 18.7289 380.284 18.8449 380.115 18.929C379.945 19.0118 379.746 19.0533 379.518 19.0533ZM382.576 16.2727V16.7699H381.008V16.2727H382.576ZM381.395 15.6193H382.038V18.1797C382.038 18.2661 382.051 18.3324 382.077 18.3786C382.104 18.4235 382.14 18.4543 382.184 18.4709C382.227 18.4875 382.276 18.4957 382.329 18.4957C382.369 18.4957 382.406 18.4928 382.439 18.4869C382.474 18.4809 382.5 18.4756 382.517 18.4709L382.626 18.9734C382.591 18.9852 382.542 18.9982 382.478 19.0124C382.416 19.0266 382.339 19.0349 382.247 19.0373C382.086 19.042 381.941 19.0178 381.812 18.9645C381.683 18.91 381.581 18.826 381.505 18.7124C381.431 18.5987 381.394 18.4567 381.395 18.2862V15.6193Z" fill="#6B898D"/>
<path d="M382.708 97.6663C402.36 97.6663 418.291 113.598 418.292 133.25C418.292 152.902 402.36 168.833 382.708 168.833C363.056 168.833 347.125 152.902 347.125 133.25" stroke="#15191D" stroke-width="11.2963" stroke-linejoin="round"/>
<path d="M319.167 127.602C319.167 130.721 321.695 133.25 324.815 133.25L379.602 133.25C382.721 133.25 385.25 130.721 385.25 127.602L385.25 72.8148C385.25 69.6954 382.721 67.1667 379.602 67.1667L324.815 67.1667C321.695 67.1667 319.167 69.6954 319.167 72.8148L319.167 127.602Z" fill="#14181C"/>
<defs>
<linearGradient id="paint0_linear_5348_124" x1="76.5" y1="-31" x2="522.5" y2="540" gradientUnits="userSpaceOnUse">
<stop stop-color="#1C2227"/>
<stop offset="0.440852" stop-color="#101418"/>
<stop offset="1" stop-color="#06080A"/>
</linearGradient>
</defs>
</svg>
