<svg width="32" height="288" viewBox="0 0 32 288" fill="none" xmlns="http://www.w3.org/2000/svg">
<path d="M6.85449 74.6311V70.8181C6.85449 70.5656 7.05923 70.3608 7.31178 70.3608H24.6798C24.9324 70.3608 25.1371 70.5656 25.1371 70.8181V74.6311" stroke="white" stroke-width="4.66812" stroke-linecap="round"/>
<path opacity="0.7" d="M9.14209 89.3101H22.8541" stroke="white" stroke-width="4.66812" stroke-linecap="round"/>
<path d="M15.9971 71.874V87.4426" stroke="white" stroke-width="4.66812"/>
<path d="M14.6334 195.729L12.7486 197.614C11.9673 198.395 11.9673 199.662 12.7486 200.443L14.6333 202.328C15.4145 203.109 16.6813 203.109 17.4626 202.328L19.3473 200.443C20.1286 199.662 20.1286 198.395 19.3473 197.614L17.4627 195.729C16.6814 194.948 15.4147 194.948 14.6334 195.729Z" fill="white" stroke="white" stroke-width="2.6675"/>
<path opacity="0.7" d="M23.2999 204.396L21.4151 206.281C20.6339 207.062 20.6338 208.329 21.4151 209.11L23.2998 210.995C24.0811 211.776 25.3478 211.776 26.1291 210.995L28.0138 209.11C28.7951 208.329 28.7951 207.062 28.0138 206.281L26.1292 204.396C25.3479 203.615 24.0812 203.615 23.2999 204.396Z" fill="white" stroke="white" stroke-width="2.6675"/>
<path d="M5.96638 204.396L4.08165 206.281C3.30035 207.062 3.30035 208.329 4.08165 209.11L5.96626 210.995C6.74756 211.776 8.01428 211.776 8.79557 210.995L10.6803 209.11C11.4616 208.329 11.4616 207.062 10.6803 206.281L8.79569 204.396C8.0144 203.615 6.74768 203.615 5.96638 204.396Z" fill="white" stroke="white" stroke-width="2.6675"/>
<path opacity="0.7" d="M14.6334 213.063L12.7486 214.948C11.9673 215.729 11.9673 216.996 12.7486 217.777L14.6333 219.662C15.4145 220.443 16.6813 220.443 17.4626 219.662L19.3473 217.777C20.1286 216.996 20.1286 215.729 19.3473 214.948L17.4627 213.063C16.6814 212.282 15.4147 212.282 14.6334 213.063Z" fill="white" stroke="white" stroke-width="2.6675"/>
<g opacity="0.7">
<path d="M15.9985 153.857C17.2721 154.997 18.954 155.69 20.7977 155.69C24.7735 155.69 27.9965 152.467 27.9965 148.492C27.9965 145.137 25.7023 142.319 22.5974 141.52" stroke="white" stroke-width="2.40075"/>
<path d="M9.39909 141.521C6.29421 142.32 4 145.138 4 148.493C4 152.468 7.22301 155.691 11.1988 155.691C15.1746 155.691 18.3976 152.468 18.3976 148.493C18.3976 147.563 18.2214 146.675 17.9006 145.859" fill="white"/>
<path d="M9.39909 141.521C6.29421 142.32 4 145.138 4 148.493C4 152.468 7.22301 155.691 11.1988 155.691C15.1746 155.691 18.3976 152.468 18.3976 148.493C18.3976 147.563 18.2214 146.675 17.9006 145.859" stroke="white" stroke-width="2.40075"/>
</g>
<path d="M15.9952 146.092C19.9709 146.092 23.194 142.869 23.194 138.893C23.194 134.917 19.9709 131.694 15.9952 131.694C12.0194 131.694 8.79639 134.917 8.79639 138.893C8.79639 142.869 12.0194 146.092 15.9952 146.092Z" fill="white" stroke="white" stroke-width="2.40075"/>
<path fill-rule="evenodd" clip-rule="evenodd" d="M12.0017 258.119C9.79191 258.119 8.00049 259.91 8.00049 262.12V281.27C8.00049 283.48 9.79191 285.271 12.0017 285.271H20.5707C22.7805 285.271 24.5719 283.48 24.5719 281.27V262.12C24.5719 259.91 22.7805 258.119 20.5707 258.119H12.0017ZM14.6667 278.122C13.5618 278.122 12.6661 279.017 12.6661 280.122C12.6661 281.227 13.5618 282.123 14.6667 282.123H18.1334C19.2383 282.123 20.134 281.227 20.134 280.122C20.134 279.017 19.2383 278.122 18.1334 278.122H14.6667Z" fill="white"/>
<path d="M24.6969 4.71924H6.99974C6.05172 4.71924 5.2832 5.48776 5.2832 6.43578V17.2389H26.4134V6.43578C26.4134 5.48776 25.6449 4.71924 24.6969 4.71924Z" fill="white" stroke="white" stroke-width="2.64083"/>
<g opacity="0.7">
<path d="M5.19805 18.5942L3.19858 25.2591C2.86817 26.3605 3.69288 27.4689 4.84273 27.4689H26.8526C28.0025 27.4689 28.8272 26.3605 28.4968 25.2591L26.4973 18.5942" fill="white"/>
<path d="M5.19805 18.5942L3.19858 25.2591C2.86817 26.3605 3.69288 27.4689 4.84273 27.4689H26.8526C28.0025 27.4689 28.8272 26.3605 28.4968 25.2591L26.4973 18.5942" stroke="white" stroke-width="2.64083"/>
</g>
<path d="M12.7367 24.4652C12.9549 23.7398 13.6229 23.2432 14.3805 23.2432H17.315C18.0726 23.2432 18.7405 23.7398 18.9588 24.4652L19.8625 27.4692H11.833L12.7367 24.4652Z" fill="white" stroke="white" stroke-width="2.64083"/>
</svg>
