<svg width="132" height="18" viewBox="0 0 132 18" fill="none" xmlns="http://www.w3.org/2000/svg">
<path d="M7.04 17.336C5.696 17.336 4.536 17.096 3.56 16.616C2.6 16.12 1.856 15.408 1.328 14.48C0.816 13.552 0.56 12.448 0.56 11.168V0.199999H3.44V11.24C3.44 12.36 3.752 13.224 4.376 13.832C5 14.44 5.888 14.744 7.04 14.744C8.208 14.744 9.096 14.44 9.704 13.832C10.328 13.224 10.64 12.36 10.64 11.24V0.199999H13.52V11.168C13.52 12.448 13.264 13.552 12.752 14.48C12.24 15.408 11.496 16.12 10.52 16.616C9.544 17.096 8.384 17.336 7.04 17.336ZM16.2776 17V0.199999H19.1816V17H16.2776Z" fill="#89F363"/>
<path d="M27.0937 17V14.456H29.3497V2.744H27.0937V0.199999H33.9337C36.1737 0.199999 37.8857 0.767999 39.0697 1.904C40.2537 3.04 40.8457 4.744 40.8457 7.016V10.184C40.8457 12.456 40.2537 14.16 39.0697 15.296C37.8857 16.432 36.1737 17 33.9337 17H27.0937ZM32.2297 14.384H33.9577C35.3177 14.384 36.3257 14.032 36.9817 13.328C37.6377 12.624 37.9657 11.608 37.9657 10.28V6.944C37.9657 5.584 37.6377 4.56 36.9817 3.872C36.3257 3.168 35.3177 2.816 33.9577 2.816H32.2297V14.384ZM48.6466 17.336C47.4626 17.336 46.4146 17.088 45.5026 16.592C44.6066 16.08 43.9026 15.368 43.3906 14.456C42.8946 13.528 42.6466 12.448 42.6466 11.216V10.928C42.6466 9.68 42.8946 8.6 43.3906 7.688C43.8866 6.776 44.5826 6.072 45.4786 5.576C46.3746 5.064 47.4066 4.808 48.5746 4.808C49.7266 4.808 50.7346 5.064 51.5986 5.576C52.4626 6.072 53.1346 6.776 53.6146 7.688C54.0946 8.6 54.3346 9.664 54.3346 10.88V11.864H45.4306C45.4626 12.792 45.7906 13.536 46.4146 14.096C47.0386 14.656 47.8066 14.936 48.7186 14.936C49.6146 14.936 50.2786 14.744 50.7106 14.36C51.1426 13.96 51.4706 13.512 51.6946 13.016L53.9746 14.192C53.7506 14.624 53.4226 15.088 52.9906 15.584C52.5746 16.064 52.0146 16.48 51.3106 16.832C50.6066 17.168 49.7186 17.336 48.6466 17.336ZM45.4546 9.776H51.5266C51.4626 8.992 51.1586 8.368 50.6146 7.904C50.0866 7.44 49.3986 7.208 48.5506 7.208C47.6706 7.208 46.9666 7.44 46.4386 7.904C45.9106 8.368 45.5826 8.992 45.4546 9.776ZM58.3535 17V7.424H55.1855V5.144H58.3535V2.744C58.3535 1.96 58.5775 1.344 59.0255 0.896C59.4895 0.431999 60.0975 0.199999 60.8495 0.199999H63.7295V2.48H61.7615C61.3135 2.48 61.0895 2.72 61.0895 3.2V5.144H66.1535V7.424H61.0895V17H58.3535ZM66.1535 17V5.144H68.8895V17H66.1535ZM67.5215 3.728C67.0095 3.728 66.5775 3.56 66.2255 3.224C65.8735 2.888 65.6975 2.448 65.6975 1.904C65.6975 1.376 65.8735 0.943999 66.2255 0.607999C66.5775 0.271999 67.0095 0.103999 67.5215 0.103999C68.0495 0.103999 68.4815 0.271999 68.8175 0.607999C69.1695 0.943999 69.3455 1.376 69.3455 1.904C69.3455 2.448 69.1695 2.888 68.8175 3.224C68.4815 3.56 68.0495 3.728 67.5215 3.728ZM71.9111 17V5.144H74.6231V6.8H75.0311C75.2391 6.352 75.6151 5.928 76.1591 5.528C76.7031 5.128 77.5271 4.928 78.6311 4.928C79.5431 4.928 80.3511 5.136 81.0551 5.552C81.7591 5.968 82.3031 6.544 82.6871 7.28C83.0871 8.016 83.2871 8.888 83.2871 9.896V17H80.5271V10.112C80.5271 9.152 80.2871 8.44 79.8071 7.976C79.3431 7.496 78.6791 7.256 77.8151 7.256C76.8391 7.256 76.0711 7.584 75.5111 8.24C74.9511 8.88 74.6711 9.8 74.6711 11V17H71.9111ZM86.1967 17V5.144H88.9567V17H86.1967ZM87.5647 3.632C87.0687 3.632 86.6367 3.472 86.2687 3.152C85.9167 2.816 85.7407 2.376 85.7407 1.832C85.7407 1.288 85.9167 0.855999 86.2687 0.535999C86.6367 0.199999 87.0687 0.0319996 87.5647 0.0319996C88.0927 0.0319996 88.5247 0.199999 88.8607 0.535999C89.2127 0.855999 89.3887 1.288 89.3887 1.832C89.3887 2.376 89.2127 2.816 88.8607 3.152C88.5247 3.472 88.0927 3.632 87.5647 3.632ZM96.4865 17C95.7185 17 95.1025 16.776 94.6385 16.328C94.1905 15.864 93.9665 15.24 93.9665 14.456V7.424H90.8705V5.144H93.9665V1.328H96.7265V5.144H100.135V7.424H96.7265V14C96.7265 14.48 96.9505 14.72 97.3985 14.72H99.7745V17H96.4865ZM102.463 17V5.144H105.223V17H102.463ZM103.831 3.632C103.335 3.632 102.903 3.472 102.535 3.152C102.183 2.816 102.007 2.376 102.007 1.832C102.007 1.288 102.183 0.855999 102.535 0.535999C102.903 0.199999 103.335 0.0319996 103.831 0.0319996C104.359 0.0319996 104.791 0.199999 105.127 0.535999C105.479 0.855999 105.655 1.288 105.655 1.832C105.655 2.376 105.479 2.816 105.127 3.152C104.791 3.472 104.359 3.632 103.831 3.632ZM110.857 17L106.969 5.144H109.897L112.825 14.984H113.233L116.185 5.144H119.113L115.225 17H110.857ZM125.912 17.336C124.728 17.336 123.68 17.088 122.768 16.592C121.872 16.08 121.168 15.368 120.656 14.456C120.16 13.528 119.912 12.448 119.912 11.216V10.928C119.912 9.68 120.16 8.6 120.656 7.688C121.152 6.776 121.848 6.072 122.744 5.576C123.64 5.064 124.672 4.808 125.84 4.808C126.992 4.808 128 5.064 128.864 5.576C129.728 6.072 130.4 6.776 130.88 7.688C131.36 8.6 131.6 9.664 131.6 10.88V11.864H122.696C122.728 12.792 123.056 13.536 123.68 14.096C124.304 14.656 125.072 14.936 125.984 14.936C126.88 14.936 127.544 14.744 127.976 14.36C128.408 13.96 128.736 13.512 128.96 13.016L131.24 14.192C131.016 14.624 130.688 15.088 130.256 15.584C129.84 16.064 129.28 16.48 128.576 16.832C127.872 17.168 126.984 17.336 125.912 17.336ZM122.72 9.776H128.792C128.728 8.992 128.424 8.368 127.88 7.904C127.352 7.44 126.664 7.208 125.816 7.208C124.936 7.208 124.232 7.44 123.704 7.904C123.176 8.368 122.848 8.992 122.72 9.776Z" fill="white"/>
</svg>
