<svg width="213" height="22" viewBox="0 0 213 22" fill="none" xmlns="http://www.w3.org/2000/svg">
<path d="M0.104 17V14.456H2.36V2.744H0.104V0.199999H6.944C9.184 0.199999 10.896 0.767999 12.08 1.904C13.264 3.04 13.856 4.744 13.856 7.016V10.184C13.856 12.456 13.264 14.16 12.08 15.296C10.896 16.432 9.184 17 6.944 17H0.104ZM5.24 14.384H6.968C8.328 14.384 9.336 14.032 9.992 13.328C10.648 12.624 10.976 11.608 10.976 10.28V6.944C10.976 5.584 10.648 4.56 9.992 3.872C9.336 3.168 8.328 2.816 6.968 2.816H5.24V14.384ZM21.6569 17.336C20.4729 17.336 19.4249 17.088 18.5129 16.592C17.6169 16.08 16.9129 15.368 16.4009 14.456C15.9049 13.528 15.6569 12.448 15.6569 11.216V10.928C15.6569 9.68 15.9049 8.6 16.4009 7.688C16.8969 6.776 17.5929 6.072 18.4889 5.576C19.3849 5.064 20.4169 4.808 21.5849 4.808C22.7369 4.808 23.7449 5.064 24.6089 5.576C25.4729 6.072 26.1449 6.776 26.6249 7.688C27.1049 8.6 27.3449 9.664 27.3449 10.88V11.864H18.4409C18.4729 12.792 18.8009 13.536 19.4249 14.096C20.0489 14.656 20.8169 14.936 21.7289 14.936C22.6249 14.936 23.2889 14.744 23.7209 14.36C24.1529 13.96 24.4809 13.512 24.7049 13.016L26.9849 14.192C26.7609 14.624 26.4329 15.088 26.0009 15.584C25.5849 16.064 25.0249 16.48 24.3209 16.832C23.6169 17.168 22.7289 17.336 21.6569 17.336ZM18.4649 9.776H24.5369C24.4729 8.992 24.1689 8.368 23.6249 7.904C23.0969 7.44 22.4089 7.208 21.5609 7.208C20.6809 7.208 19.9769 7.44 19.4489 7.904C18.9209 8.368 18.5929 8.992 18.4649 9.776ZM31.3638 17V7.424H28.1958V5.144H31.3638V2.744C31.3638 1.96 31.5878 1.344 32.0358 0.896C32.4998 0.431999 33.1078 0.199999 33.8598 0.199999H36.7398V2.48H34.7718C34.3238 2.48 34.0998 2.72 34.0998 3.2V5.144H39.1638V7.424H34.0998V17H31.3638ZM39.1638 17V5.144H41.8998V17H39.1638ZM40.5318 3.728C40.0198 3.728 39.5878 3.56 39.2358 3.224C38.8838 2.888 38.7078 2.448 38.7078 1.904C38.7078 1.376 38.8838 0.943999 39.2358 0.607999C39.5878 0.271999 40.0198 0.103999 40.5318 0.103999C41.0598 0.103999 41.4918 0.271999 41.8278 0.607999C42.1798 0.943999 42.3558 1.376 42.3558 1.904C42.3558 2.448 42.1798 2.888 41.8278 3.224C41.4918 3.56 41.0598 3.728 40.5318 3.728ZM44.9214 17V5.144H47.6334V6.8H48.0414C48.2494 6.352 48.6254 5.928 49.1694 5.528C49.7134 5.128 50.5374 4.928 51.6414 4.928C52.5534 4.928 53.3614 5.136 54.0654 5.552C54.7694 5.968 55.3134 6.544 55.6974 7.28C56.0974 8.016 56.2974 8.888 56.2974 9.896V17H53.5374V10.112C53.5374 9.152 53.2974 8.44 52.8174 7.976C52.3534 7.496 51.6894 7.256 50.8254 7.256C49.8494 7.256 49.0814 7.584 48.5214 8.24C47.9614 8.88 47.6814 9.8 47.6814 11V17H44.9214ZM59.207 17V5.144H61.967V17H59.207ZM60.575 3.632C60.079 3.632 59.647 3.472 59.279 3.152C58.927 2.816 58.751 2.376 58.751 1.832C58.751 1.288 58.927 0.855999 59.279 0.535999C59.647 0.199999 60.079 0.0319996 60.575 0.0319996C61.103 0.0319996 61.535 0.199999 61.871 0.535999C62.223 0.855999 62.399 1.288 62.399 1.832C62.399 2.376 62.223 2.816 61.871 3.152C61.535 3.472 61.103 3.632 60.575 3.632ZM69.4968 17C68.7288 17 68.1128 16.776 67.6488 16.328C67.2008 15.864 66.9768 15.24 66.9768 14.456V7.424H63.8808V5.144H66.9768V1.328H69.7368V5.144H73.1448V7.424H69.7368V14C69.7368 14.48 69.9608 14.72 70.4088 14.72H72.7848V17H69.4968ZM75.4736 17V5.144H78.2336V17H75.4736ZM76.8416 3.632C76.3456 3.632 75.9136 3.472 75.5456 3.152C75.1936 2.816 75.0176 2.376 75.0176 1.832C75.0176 1.288 75.1936 0.855999 75.5456 0.535999C75.9136 0.199999 76.3456 0.0319996 76.8416 0.0319996C77.3696 0.0319996 77.8016 0.199999 78.1376 0.535999C78.4896 0.855999 78.6656 1.288 78.6656 1.832C78.6656 2.376 78.4896 2.816 78.1376 3.152C77.8016 3.472 77.3696 3.632 76.8416 3.632ZM83.8674 17L79.9794 5.144H82.9074L85.8354 14.984H86.2434L89.1954 5.144H92.1234L88.2354 17H83.8674ZM98.9219 17.336C97.7379 17.336 96.6899 17.088 95.7779 16.592C94.8819 16.08 94.1779 15.368 93.6659 14.456C93.1699 13.528 92.9219 12.448 92.9219 11.216V10.928C92.9219 9.68 93.1699 8.6 93.6659 7.688C94.1619 6.776 94.8579 6.072 95.7539 5.576C96.6499 5.064 97.6819 4.808 98.8499 4.808C100.002 4.808 101.01 5.064 101.874 5.576C102.738 6.072 103.41 6.776 103.89 7.688C104.37 8.6 104.61 9.664 104.61 10.88V11.864H95.7059C95.7379 12.792 96.0659 13.536 96.6899 14.096C97.3139 14.656 98.0819 14.936 98.9939 14.936C99.8899 14.936 100.554 14.744 100.986 14.36C101.418 13.96 101.746 13.512 101.97 13.016L104.25 14.192C104.026 14.624 103.698 15.088 103.266 15.584C102.85 16.064 102.29 16.48 101.586 16.832C100.882 17.168 99.9939 17.336 98.9219 17.336ZM95.7299 9.776H101.802C101.738 8.992 101.434 8.368 100.89 7.904C100.362 7.44 99.6739 7.208 98.8259 7.208C97.9459 7.208 97.2419 7.44 96.7139 7.904C96.1859 8.368 95.8579 8.992 95.7299 9.776Z" fill="#89F363"/>
<path d="M118.888 17.336C117.544 17.336 116.384 17.096 115.408 16.616C114.448 16.12 113.704 15.408 113.176 14.48C112.664 13.552 112.408 12.448 112.408 11.168V0.199999H115.288V11.24C115.288 12.36 115.6 13.224 116.224 13.832C116.848 14.44 117.736 14.744 118.888 14.744C120.056 14.744 120.944 14.44 121.552 13.832C122.176 13.224 122.488 12.36 122.488 11.24V0.199999H125.368V11.168C125.368 12.448 125.112 13.552 124.6 14.48C124.088 15.408 123.344 16.12 122.368 16.616C121.392 17.096 120.232 17.336 118.888 17.336ZM128.126 17V0.199999H131.03V17H128.126ZM138.942 17V14.456H141.198V2.744H138.942V0.199999H145.782C148.022 0.199999 149.734 0.767999 150.918 1.904C152.102 3.04 152.694 4.744 152.694 7.016V10.184C152.694 12.456 152.102 14.16 150.918 15.296C149.734 16.432 148.022 17 145.782 17H138.942ZM144.078 14.384H145.806C147.166 14.384 148.174 14.032 148.83 13.328C149.486 12.624 149.814 11.608 149.814 10.28V6.944C149.814 5.584 149.486 4.56 148.83 3.872C148.174 3.168 147.166 2.816 145.806 2.816H144.078V14.384ZM160.495 17.336C159.311 17.336 158.263 17.088 157.351 16.592C156.455 16.08 155.751 15.368 155.239 14.456C154.743 13.528 154.495 12.448 154.495 11.216V10.928C154.495 9.68 154.743 8.6 155.239 7.688C155.735 6.776 156.431 6.072 157.327 5.576C158.223 5.064 159.255 4.808 160.423 4.808C161.575 4.808 162.583 5.064 163.447 5.576C164.311 6.072 164.983 6.776 165.463 7.688C165.943 8.6 166.183 9.664 166.183 10.88V11.864H157.279C157.311 12.792 157.639 13.536 158.263 14.096C158.887 14.656 159.655 14.936 160.567 14.936C161.463 14.936 162.127 14.744 162.559 14.36C162.991 13.96 163.319 13.512 163.543 13.016L165.823 14.192C165.599 14.624 165.271 15.088 164.839 15.584C164.423 16.064 163.863 16.48 163.159 16.832C162.455 17.168 161.567 17.336 160.495 17.336ZM157.303 9.776H163.375C163.311 8.992 163.007 8.368 162.463 7.904C161.935 7.44 161.247 7.208 160.399 7.208C159.519 7.208 158.815 7.44 158.287 7.904C157.759 8.368 157.431 8.992 157.303 9.776ZM173.432 17.336C171.896 17.336 170.632 17 169.64 16.328C168.648 15.656 168.048 14.672 167.84 13.376L170.384 12.728C170.496 13.336 170.696 13.816 170.984 14.168C171.272 14.52 171.624 14.768 172.04 14.912C172.472 15.056 172.936 15.128 173.432 15.128C174.184 15.128 174.744 14.992 175.112 14.72C175.496 14.448 175.688 14.104 175.688 13.688C175.688 13.256 175.504 12.936 175.136 12.728C174.784 12.52 174.24 12.344 173.504 12.2L172.76 12.08C171.944 11.92 171.2 11.704 170.528 11.432C169.856 11.144 169.312 10.76 168.896 10.28C168.496 9.784 168.296 9.16 168.296 8.408C168.296 7.256 168.72 6.368 169.568 5.744C170.432 5.12 171.56 4.808 172.952 4.808C174.28 4.808 175.376 5.104 176.24 5.696C177.104 6.288 177.664 7.08 177.92 8.072L175.376 8.84C175.248 8.168 174.968 7.696 174.536 7.424C174.104 7.136 173.576 6.992 172.952 6.992C172.312 6.992 171.816 7.104 171.464 7.328C171.128 7.552 170.96 7.872 170.96 8.288C170.96 8.704 171.136 9.016 171.488 9.224C171.84 9.432 172.312 9.584 172.904 9.68L173.648 9.824C174.528 9.984 175.32 10.192 176.024 10.448C176.744 10.704 177.312 11.072 177.728 11.552C178.144 12.032 178.352 12.68 178.352 13.496C178.352 14.728 177.904 15.68 177.008 16.352C176.128 17.008 174.936 17.336 173.432 17.336ZM180.666 17V5.144H183.426V17H180.666ZM182.034 3.632C181.538 3.632 181.106 3.472 180.738 3.152C180.386 2.816 180.21 2.376 180.21 1.832C180.21 1.288 180.386 0.855999 180.738 0.535999C181.106 0.199999 181.538 0.0319996 182.034 0.0319996C182.562 0.0319996 182.994 0.199999 183.33 0.535999C183.682 0.855999 183.858 1.288 183.858 1.832C183.858 2.376 183.682 2.816 183.33 3.152C182.994 3.472 182.562 3.632 182.034 3.632ZM185.868 11.12V10.76C185.868 9.512 186.116 8.448 186.612 7.568C187.108 6.672 187.772 5.992 188.604 5.528C189.436 5.048 190.348 4.808 191.34 4.808C192.46 4.808 193.308 5.008 193.884 5.408C194.476 5.808 194.908 6.24 195.18 6.704H195.588V5.144H198.276V19.256C198.276 20.04 198.052 20.656 197.604 21.104C197.156 21.568 196.548 21.8 195.78 21.8H187.812V19.4H194.844C195.308 19.4 195.54 19.16 195.54 18.68V15.248H195.132C194.956 15.52 194.716 15.8 194.412 16.088C194.108 16.36 193.708 16.592 193.212 16.784C192.716 16.976 192.092 17.072 191.34 17.072C190.348 17.072 189.436 16.84 188.604 16.376C187.772 15.896 187.108 15.216 186.612 14.336C186.116 13.44 185.868 12.368 185.868 11.12ZM192.108 14.648C193.1 14.648 193.924 14.336 194.58 13.712C195.236 13.072 195.564 12.184 195.564 11.048V10.808C195.564 9.656 195.236 8.768 194.58 8.144C193.94 7.52 193.116 7.208 192.108 7.208C191.116 7.208 190.284 7.52 189.612 8.144C188.956 8.768 188.628 9.656 188.628 10.808V11.048C188.628 12.184 188.956 13.072 189.612 13.712C190.284 14.336 191.116 14.648 192.108 14.648ZM201.292 17V5.144H204.004V6.8H204.412C204.62 6.352 204.996 5.928 205.54 5.528C206.084 5.128 206.908 4.928 208.012 4.928C208.924 4.928 209.732 5.136 210.436 5.552C211.14 5.968 211.684 6.544 212.068 7.28C212.468 8.016 212.668 8.888 212.668 9.896V17H209.908V10.112C209.908 9.152 209.668 8.44 209.188 7.976C208.724 7.496 208.06 7.256 207.196 7.256C206.22 7.256 205.452 7.584 204.892 8.24C204.332 8.88 204.052 9.8 204.052 11V17H201.292Z" fill="white"/>
</svg>
