<svg width="539" height="538" viewBox="0 0 539 538" fill="none" xmlns="http://www.w3.org/2000/svg">
<path d="M538 268.571C538 416.268 417.792 536.007 269.5 536.007C121.208 536.007 1 416.268 1 268.571C1 120.874 121.208 1.13525 269.5 1.13525C417.792 1.13525 538 120.874 538 268.571Z" fill="#61BE99" stroke="url(#paint0_linear_5512_6897)" stroke-width="2"/>
<mask id="mask0_5512_6897" style="mask-type:alpha" maskUnits="userSpaceOnUse" x="0" y="0" width="539" height="538">
<path d="M538 268.579C538 416.356 417.809 536.158 269.539 536.158C121.269 536.158 1.07812 416.356 1.07812 268.579C1.07812 120.802 121.269 1 269.539 1C417.809 1 538 120.802 538 268.579Z" fill="#61BE99" stroke="url(#paint1_linear_5512_6897)" stroke-width="2"/>
</mask>
<g mask="url(#mask0_5512_6897)">
<g style="mix-blend-mode:soft-light" filter="url(#filter0_f_5512_6897)">
<ellipse cx="269.995" cy="-69.9763" rx="334.192" ry="132.068" fill="white"/>
</g>
</g>
<g filter="url(#filter1_d_5512_6897)">
<ellipse cx="270" cy="270.071" rx="81" ry="80.9807" fill="white"/>
</g>
<path d="M247.025 265.077V263.133C247.025 261.949 247.217 260.981 247.601 260.229C248.001 259.461 248.569 258.837 249.305 258.357C250.041 257.861 250.937 257.453 251.993 257.133L253.529 256.653C254.153 256.445 254.681 256.197 255.113 255.909C255.545 255.621 255.881 255.269 256.121 254.853C256.361 254.421 256.481 253.917 256.481 253.341V253.245C256.481 252.381 256.185 251.701 255.593 251.205C255.001 250.693 254.209 250.437 253.217 250.437C252.225 250.437 251.417 250.709 250.793 251.253C250.169 251.781 249.857 252.565 249.857 253.605V254.013H247.073V253.653C247.073 252.437 247.345 251.405 247.889 250.557C248.433 249.709 249.169 249.061 250.097 248.613C251.025 248.165 252.065 247.941 253.217 247.941C254.369 247.941 255.401 248.165 256.313 248.613C257.241 249.045 257.961 249.653 258.473 250.437C259.001 251.221 259.265 252.141 259.265 253.197V253.437C259.265 254.509 259.049 255.413 258.617 256.149C258.185 256.885 257.585 257.493 256.817 257.973C256.065 258.437 255.209 258.821 254.249 259.125L252.761 259.581C252.041 259.805 251.465 260.045 251.033 260.301C250.617 260.557 250.321 260.853 250.145 261.189C249.969 261.509 249.881 261.917 249.881 262.413V262.581H259.121V265.077H247.025ZM267.514 265.413C265.546 265.413 263.97 264.861 262.786 263.757C261.602 262.653 261.01 260.989 261.01 258.765V254.589C261.01 252.413 261.602 250.765 262.786 249.645C263.97 248.509 265.546 247.941 267.514 247.941C269.498 247.941 271.074 248.509 272.242 249.645C273.426 250.765 274.018 252.413 274.018 254.589V258.765C274.018 260.989 273.426 262.653 272.242 263.757C271.074 264.861 269.498 265.413 267.514 265.413ZM267.514 262.917C268.778 262.917 269.706 262.565 270.298 261.861C270.906 261.157 271.21 260.157 271.21 258.861V254.469C271.21 253.157 270.882 252.157 270.226 251.469C269.57 250.781 268.666 250.437 267.514 250.437C266.33 250.437 265.418 250.789 264.778 251.493C264.138 252.197 263.818 253.189 263.818 254.469V258.861C263.818 260.189 264.122 261.197 264.73 261.885C265.354 262.573 266.282 262.917 267.514 262.917ZM278.277 265.389L276.573 264.045L289.605 247.965L291.285 249.309L278.277 265.389ZM288.525 265.341C287.325 265.341 286.381 265.013 285.693 264.357C285.005 263.701 284.661 262.805 284.661 261.669V261.501C284.661 260.365 285.005 259.469 285.693 258.813C286.381 258.157 287.325 257.829 288.525 257.829C289.709 257.829 290.645 258.157 291.333 258.813C292.037 259.469 292.389 260.365 292.389 261.501V261.669C292.389 262.805 292.045 263.701 291.357 264.357C290.669 265.013 289.725 265.341 288.525 265.341ZM288.525 263.517C289.037 263.517 289.437 263.357 289.725 263.037C290.029 262.701 290.181 262.277 290.181 261.765V261.405C290.181 260.877 290.029 260.453 289.725 260.133C289.437 259.813 289.037 259.653 288.525 259.653C288.013 259.653 287.605 259.813 287.301 260.133C287.013 260.453 286.869 260.877 286.869 261.405V261.765C286.869 262.277 287.013 262.701 287.301 263.037C287.605 263.357 288.013 263.517 288.525 263.517ZM279.333 255.525C278.133 255.525 277.189 255.197 276.501 254.541C275.813 253.885 275.469 252.997 275.469 251.877V251.709C275.469 250.557 275.813 249.653 276.501 248.997C277.189 248.341 278.133 248.013 279.333 248.013C280.517 248.013 281.461 248.341 282.165 248.997C282.869 249.653 283.221 250.557 283.221 251.709V251.877C283.221 252.997 282.877 253.885 282.189 254.541C281.501 255.197 280.549 255.525 279.333 255.525ZM279.333 253.701C279.861 253.701 280.269 253.541 280.557 253.221C280.861 252.901 281.013 252.477 281.013 251.949V251.589C281.013 251.077 280.861 250.661 280.557 250.341C280.269 250.005 279.861 249.837 279.333 249.837C278.821 249.837 278.413 250.005 278.109 250.341C277.821 250.661 277.677 251.077 277.677 251.589V251.949C277.677 252.477 277.821 252.901 278.109 253.221C278.413 253.541 278.821 253.701 279.333 253.701ZM242.616 291.077C241.848 291.077 241.232 290.853 240.768 290.405C240.32 289.941 240.096 289.317 240.096 288.533V281.501H237V279.221H240.096V275.405H242.856V279.221H246.264V281.501H242.856V288.077C242.856 288.557 243.08 288.797 243.528 288.797H245.904V291.077H242.616ZM253.595 291.413C252.411 291.413 251.363 291.165 250.451 290.669C249.555 290.157 248.851 289.445 248.339 288.533C247.843 287.605 247.595 286.525 247.595 285.293V285.005C247.595 283.757 247.843 282.677 248.339 281.765C248.835 280.853 249.531 280.149 250.427 279.653C251.323 279.141 252.355 278.885 253.523 278.885C254.675 278.885 255.683 279.141 256.547 279.653C257.411 280.149 258.083 280.853 258.563 281.765C259.043 282.677 259.283 283.741 259.283 284.957V285.941H250.379C250.411 286.869 250.739 287.613 251.363 288.173C251.987 288.733 252.755 289.013 253.667 289.013C254.563 289.013 255.227 288.821 255.659 288.437C256.091 288.037 256.419 287.589 256.643 287.093L258.923 288.269C258.699 288.701 258.371 289.165 257.939 289.661C257.523 290.141 256.963 290.557 256.259 290.909C255.555 291.245 254.667 291.413 253.595 291.413ZM250.403 283.853H256.475C256.411 283.069 256.107 282.445 255.563 281.981C255.035 281.517 254.347 281.285 253.499 281.285C252.619 281.285 251.915 281.517 251.387 281.981C250.859 282.445 250.531 283.069 250.403 283.853ZM267.253 291.413C266.069 291.413 265.005 291.173 264.061 290.693C263.133 290.197 262.397 289.501 261.853 288.605C261.325 287.693 261.061 286.605 261.061 285.341V284.957C261.061 283.693 261.325 282.605 261.853 281.693C262.397 280.781 263.133 280.085 264.061 279.605C265.005 279.125 266.069 278.885 267.253 278.885C268.437 278.885 269.493 279.125 270.421 279.605C271.349 280.085 272.077 280.781 272.605 281.693C273.149 282.605 273.421 283.693 273.421 284.957V285.341C273.421 286.605 273.149 287.693 272.605 288.605C272.077 289.501 271.349 290.197 270.421 290.693C269.493 291.173 268.437 291.413 267.253 291.413ZM267.253 288.965C268.261 288.965 269.085 288.645 269.725 288.005C270.365 287.349 270.685 286.437 270.685 285.269V285.029C270.685 283.861 270.365 282.957 269.725 282.317C269.085 281.661 268.261 281.333 267.253 281.333C266.245 281.333 265.421 281.661 264.781 282.317C264.141 282.957 263.821 283.861 263.821 285.029V285.269C263.821 286.437 264.141 287.349 264.781 288.005C265.421 288.645 266.245 288.965 267.253 288.965ZM275.875 291.077V279.221H278.587V280.589H278.995C279.171 280.093 279.467 279.733 279.883 279.509C280.299 279.285 280.795 279.173 281.371 279.173H282.811V281.621H281.323C280.523 281.621 279.875 281.837 279.379 282.269C278.883 282.685 278.635 283.333 278.635 284.213V291.077H275.875ZM284.77 291.077V279.221H287.53V291.077H284.77ZM286.138 277.709C285.642 277.709 285.21 277.549 284.842 277.229C284.49 276.893 284.314 276.453 284.314 275.909C284.314 275.365 284.49 274.933 284.842 274.613C285.21 274.277 285.642 274.109 286.138 274.109C286.666 274.109 287.098 274.277 287.434 274.613C287.786 274.933 287.962 275.365 287.962 275.909C287.962 276.453 287.786 276.893 287.434 277.229C287.098 277.549 286.666 277.709 286.138 277.709ZM294.22 291.413C293.388 291.413 292.636 291.269 291.964 290.981C291.292 290.677 290.756 290.245 290.356 289.685C289.972 289.125 289.78 288.437 289.78 287.621C289.78 286.821 289.972 286.149 290.356 285.605C290.756 285.061 291.3 284.653 291.988 284.381C292.676 284.093 293.46 283.949 294.34 283.949H297.772V283.229C297.772 282.605 297.58 282.101 297.196 281.717C296.812 281.317 296.212 281.117 295.396 281.117C294.596 281.117 293.988 281.309 293.572 281.693C293.172 282.061 292.908 282.541 292.78 283.133L290.236 282.293C290.428 281.669 290.732 281.101 291.148 280.589C291.58 280.077 292.148 279.669 292.852 279.365C293.556 279.045 294.42 278.885 295.444 278.885C296.996 278.885 298.212 279.277 299.092 280.061C299.988 280.829 300.436 281.949 300.436 283.421V288.077C300.436 288.557 300.66 288.797 301.108 288.797H302.116V291.077H300.172C299.596 291.077 299.124 290.933 298.756 290.645C298.388 290.357 298.204 289.965 298.204 289.469V289.421H297.796C297.7 289.645 297.532 289.917 297.292 290.237C297.052 290.557 296.684 290.837 296.188 291.077C295.708 291.301 295.052 291.413 294.22 291.413ZM294.676 289.157C295.588 289.157 296.332 288.901 296.908 288.389C297.484 287.861 297.772 287.157 297.772 286.277V286.037H294.508C293.916 286.037 293.436 286.165 293.068 286.421C292.7 286.677 292.516 287.053 292.516 287.549C292.516 288.029 292.708 288.421 293.092 288.725C293.476 289.013 294.004 289.157 294.676 289.157Z" fill="#06080A"/>
<path d="M250.694 89.4549C249.398 89.4549 248.262 89.2629 247.286 88.8789C246.31 88.4949 245.55 87.9429 245.006 87.2229C244.478 86.4869 244.214 85.6309 244.214 84.6549V84.3669C244.214 83.5829 244.358 82.9349 244.646 82.4229C244.934 81.9109 245.294 81.5109 245.726 81.2229C246.158 80.9349 246.566 80.7349 246.95 80.6229V80.2149C246.566 80.0869 246.174 79.8789 245.774 79.5909C245.39 79.3029 245.07 78.9189 244.814 78.4389C244.574 77.9589 244.454 77.3749 244.454 76.6869V76.3989C244.454 75.5189 244.71 74.7509 245.222 74.0949C245.75 73.4229 246.478 72.9029 247.406 72.5349C248.35 72.1669 249.446 71.9829 250.694 71.9829C251.926 71.9829 253.006 72.1669 253.934 72.5349C254.878 72.9029 255.606 73.4229 256.118 74.0949C256.646 74.7509 256.91 75.5189 256.91 76.3989V76.6869C256.91 77.3749 256.782 77.9589 256.526 78.4389C256.286 78.9189 255.974 79.3029 255.59 79.5909C255.222 79.8789 254.838 80.0869 254.438 80.2149V80.6229C254.838 80.7349 255.246 80.9349 255.662 81.2229C256.094 81.5109 256.454 81.9109 256.742 82.4229C257.03 82.9349 257.174 83.5829 257.174 84.3669V84.6549C257.174 85.6309 256.902 86.4869 256.358 87.2229C255.814 87.9429 255.054 88.4949 254.078 88.8789C253.102 89.2629 251.974 89.4549 250.694 89.4549ZM250.694 86.9589C251.862 86.9589 252.766 86.7349 253.406 86.2869C254.062 85.8389 254.39 85.2229 254.39 84.4389V84.2469C254.39 83.4789 254.07 82.8709 253.43 82.4229C252.79 81.9589 251.878 81.7269 250.694 81.7269C249.51 81.7269 248.598 81.9589 247.958 82.4229C247.318 82.8709 246.998 83.4789 246.998 84.2469V84.4389C246.998 85.2229 247.318 85.8389 247.958 86.2869C248.614 86.7349 249.526 86.9589 250.694 86.9589ZM250.694 79.2549C251.782 79.2549 252.622 79.0549 253.214 78.6549C253.822 78.2549 254.126 77.6869 254.126 76.9509V76.7589C254.126 76.0389 253.814 75.4789 253.19 75.0789C252.582 74.6789 251.75 74.4789 250.694 74.4789C249.638 74.4789 248.798 74.6789 248.174 75.0789C247.566 75.4789 247.262 76.0389 247.262 76.7589V76.9509C247.262 77.6869 247.558 78.2549 248.15 78.6549C248.758 79.0549 249.606 79.2549 250.694 79.2549ZM265.249 89.4549C263.281 89.4549 261.705 88.9029 260.521 87.7989C259.337 86.6949 258.745 85.0309 258.745 82.8069V78.6309C258.745 76.4549 259.337 74.8069 260.521 73.6869C261.705 72.5509 263.281 71.9829 265.249 71.9829C267.233 71.9829 268.809 72.5509 269.977 73.6869C271.161 74.8069 271.753 76.4549 271.753 78.6309V82.8069C271.753 85.0309 271.161 86.6949 269.977 87.7989C268.809 88.9029 267.233 89.4549 265.249 89.4549ZM265.249 86.9589C266.513 86.9589 267.441 86.6069 268.033 85.9029C268.641 85.1989 268.945 84.1989 268.945 82.9029V78.5109C268.945 77.1989 268.617 76.1989 267.961 75.5109C267.305 74.8229 266.401 74.4789 265.249 74.4789C264.065 74.4789 263.153 74.8309 262.513 75.5349C261.873 76.2389 261.553 77.2309 261.553 78.5109V82.9029C261.553 84.2309 261.857 85.2389 262.465 85.9269C263.089 86.6149 264.017 86.9589 265.249 86.9589ZM276.013 89.4309L274.309 88.0869L287.341 72.0069L289.021 73.3509L276.013 89.4309ZM286.261 89.3829C285.061 89.3829 284.117 89.0549 283.429 88.3989C282.741 87.7429 282.397 86.8469 282.397 85.7109V85.5429C282.397 84.4069 282.741 83.5109 283.429 82.8549C284.117 82.1989 285.061 81.8709 286.261 81.8709C287.445 81.8709 288.381 82.1989 289.069 82.8549C289.773 83.5109 290.125 84.4069 290.125 85.5429V85.7109C290.125 86.8469 289.781 87.7429 289.093 88.3989C288.405 89.0549 287.461 89.3829 286.261 89.3829ZM286.261 87.5589C286.773 87.5589 287.173 87.3989 287.461 87.0789C287.765 86.7429 287.917 86.3189 287.917 85.8069V85.4469C287.917 84.9189 287.765 84.4949 287.461 84.1749C287.173 83.8549 286.773 83.6949 286.261 83.6949C285.749 83.6949 285.341 83.8549 285.037 84.1749C284.749 84.4949 284.605 84.9189 284.605 85.4469V85.8069C284.605 86.3189 284.749 86.7429 285.037 87.0789C285.341 87.3989 285.749 87.5589 286.261 87.5589ZM277.069 79.5669C275.869 79.5669 274.925 79.2389 274.237 78.5829C273.549 77.9269 273.205 77.0389 273.205 75.9189V75.7509C273.205 74.5989 273.549 73.6949 274.237 73.0389C274.925 72.3829 275.869 72.0549 277.069 72.0549C278.253 72.0549 279.197 72.3829 279.901 73.0389C280.605 73.6949 280.957 74.5989 280.957 75.7509V75.9189C280.957 77.0389 280.613 77.9269 279.925 78.5829C279.237 79.2389 278.285 79.5669 277.069 79.5669ZM277.069 77.7429C277.597 77.7429 278.005 77.5829 278.293 77.2629C278.597 76.9429 278.749 76.5189 278.749 75.9909V75.6309C278.749 75.1189 278.597 74.7029 278.293 74.3829C278.005 74.0469 277.597 73.8789 277.069 73.8789C276.557 73.8789 276.149 74.0469 275.845 74.3829C275.557 74.7029 275.413 75.1189 275.413 75.6309V75.9909C275.413 76.5189 275.557 76.9429 275.845 77.2629C276.149 77.5829 276.557 77.7429 277.069 77.7429ZM231.808 119.919V103.263H234.52V104.823H234.928C235.2 104.327 235.632 103.887 236.224 103.503C236.832 103.119 237.696 102.927 238.816 102.927C239.776 102.927 240.664 103.167 241.48 103.647C242.312 104.111 242.976 104.799 243.472 105.711C243.968 106.623 244.216 107.719 244.216 108.999V109.383C244.216 110.663 243.968 111.759 243.472 112.671C242.976 113.583 242.32 114.279 241.504 114.759C240.688 115.223 239.792 115.455 238.816 115.455C238.064 115.455 237.432 115.367 236.92 115.191C236.424 115.015 236.016 114.783 235.696 114.495C235.392 114.207 235.152 113.919 234.976 113.631H234.568V119.919H231.808ZM238 113.055C239.008 113.055 239.832 112.735 240.472 112.095C241.128 111.439 241.456 110.511 241.456 109.311V109.071C241.456 107.855 241.128 106.927 240.472 106.287C239.816 105.647 238.992 105.327 238 105.327C237.008 105.327 236.176 105.647 235.504 106.287C234.848 106.927 234.52 107.855 234.52 109.071V109.311C234.52 110.511 234.848 111.439 235.504 112.095C236.176 112.735 237.008 113.055 238 113.055ZM246.657 115.119V103.263H249.369V104.631H249.777C249.953 104.135 250.249 103.775 250.665 103.551C251.081 103.327 251.577 103.215 252.153 103.215H253.593V105.663H252.105C251.305 105.663 250.657 105.879 250.161 106.311C249.665 106.727 249.417 107.375 249.417 108.255V115.119H246.657ZM258.919 115.455C258.087 115.455 257.335 115.311 256.663 115.023C255.991 114.719 255.455 114.287 255.055 113.727C254.671 113.167 254.479 112.479 254.479 111.663C254.479 110.863 254.671 110.191 255.055 109.647C255.455 109.103 255.999 108.695 256.687 108.423C257.375 108.135 258.159 107.991 259.039 107.991H262.471V107.271C262.471 106.647 262.279 106.143 261.895 105.759C261.511 105.359 260.911 105.159 260.095 105.159C259.295 105.159 258.687 105.351 258.271 105.735C257.871 106.103 257.607 106.583 257.479 107.175L254.935 106.335C255.127 105.711 255.431 105.143 255.847 104.631C256.279 104.119 256.847 103.711 257.551 103.407C258.255 103.087 259.119 102.927 260.143 102.927C261.695 102.927 262.911 103.319 263.791 104.103C264.687 104.871 265.135 105.991 265.135 107.463V112.119C265.135 112.599 265.359 112.839 265.807 112.839H266.815V115.119H264.871C264.295 115.119 263.823 114.975 263.455 114.687C263.087 114.399 262.903 114.007 262.903 113.511V113.463H262.495C262.399 113.687 262.231 113.959 261.991 114.279C261.751 114.599 261.383 114.879 260.887 115.119C260.407 115.343 259.751 115.455 258.919 115.455ZM259.375 113.199C260.287 113.199 261.031 112.943 261.607 112.431C262.183 111.903 262.471 111.199 262.471 110.319V110.079H259.207C258.615 110.079 258.135 110.207 257.767 110.463C257.399 110.719 257.215 111.095 257.215 111.591C257.215 112.071 257.407 112.463 257.791 112.767C258.175 113.055 258.703 113.199 259.375 113.199ZM258.535 101.847L260.335 98.3669H263.479L260.983 101.847H258.535ZM272.287 115.119C271.519 115.119 270.903 114.895 270.439 114.447C269.991 113.983 269.767 113.359 269.767 112.575V105.543H266.671V103.263H269.767V99.4469H272.527V103.263H275.935V105.543H272.527V112.119C272.527 112.599 272.751 112.839 273.199 112.839H275.575V115.119H272.287ZM278.263 115.119V103.263H281.023V115.119H278.263ZM279.631 101.751C279.135 101.751 278.703 101.591 278.335 101.271C277.983 100.935 277.807 100.495 277.807 99.9509C277.807 99.4069 277.983 98.9749 278.335 98.6549C278.703 98.3189 279.135 98.1509 279.631 98.1509C280.159 98.1509 280.591 98.3189 280.927 98.6549C281.279 98.9749 281.455 99.4069 281.455 99.9509C281.455 100.495 281.279 100.935 280.927 101.271C280.591 101.591 280.159 101.751 279.631 101.751ZM289.585 115.455C288.433 115.455 287.393 115.215 286.465 114.735C285.537 114.255 284.801 113.559 284.257 112.647C283.729 111.735 283.465 110.639 283.465 109.359V109.023C283.465 107.743 283.729 106.647 284.257 105.735C284.801 104.823 285.537 104.127 286.465 103.647C287.393 103.167 288.433 102.927 289.585 102.927C290.721 102.927 291.689 103.127 292.489 103.527C293.305 103.927 293.961 104.479 294.457 105.183C294.953 105.871 295.273 106.647 295.417 107.511L292.753 108.063C292.689 107.567 292.537 107.119 292.297 106.719C292.057 106.303 291.713 105.975 291.265 105.735C290.833 105.495 290.297 105.375 289.657 105.375C289.001 105.375 288.409 105.519 287.881 105.807C287.369 106.079 286.961 106.495 286.657 107.055C286.369 107.615 286.225 108.287 286.225 109.071V109.311C286.225 110.095 286.369 110.767 286.657 111.327C286.961 111.871 287.369 112.287 287.881 112.575C288.409 112.863 289.001 113.007 289.657 113.007C290.633 113.007 291.369 112.759 291.865 112.263C292.377 111.751 292.697 111.095 292.825 110.295L295.489 110.919C295.297 111.751 294.953 112.511 294.457 113.199C293.961 113.887 293.305 114.439 292.489 114.855C291.689 115.255 290.721 115.455 289.585 115.455ZM301.366 115.455C300.534 115.455 299.782 115.311 299.11 115.023C298.438 114.719 297.902 114.287 297.502 113.727C297.118 113.167 296.926 112.479 296.926 111.663C296.926 110.863 297.118 110.191 297.502 109.647C297.902 109.103 298.446 108.695 299.134 108.423C299.822 108.135 300.606 107.991 301.486 107.991H304.918V107.271C304.918 106.647 304.726 106.143 304.342 105.759C303.958 105.359 303.358 105.159 302.542 105.159C301.742 105.159 301.134 105.351 300.718 105.735C300.318 106.103 300.054 106.583 299.926 107.175L297.382 106.335C297.574 105.711 297.878 105.143 298.294 104.631C298.726 104.119 299.294 103.711 299.998 103.407C300.702 103.087 301.566 102.927 302.59 102.927C304.142 102.927 305.358 103.319 306.238 104.103C307.134 104.871 307.582 105.991 307.582 107.463V112.119C307.582 112.599 307.806 112.839 308.254 112.839H309.262V115.119H307.318C306.742 115.119 306.27 114.975 305.902 114.687C305.534 114.399 305.35 114.007 305.35 113.511V113.463H304.942C304.846 113.687 304.678 113.959 304.438 114.279C304.198 114.599 303.83 114.879 303.334 115.119C302.854 115.343 302.198 115.455 301.366 115.455ZM301.822 113.199C302.734 113.199 303.478 112.943 304.054 112.431C304.63 111.903 304.918 111.199 304.918 110.319V110.079H301.654C301.062 110.079 300.582 110.207 300.214 110.463C299.846 110.719 299.662 111.095 299.662 111.591C299.662 112.071 299.854 112.463 300.238 112.767C300.622 113.055 301.15 113.199 301.822 113.199Z" fill="black"/>
<path d="M216.896 424.347H219.026L222.731 433.392H222.867L226.572 424.347H228.702V435.983H227.032V427.563H226.924L223.492 435.966H222.106L218.674 427.557H218.566V435.983H216.896V424.347ZM233.658 436.176C233.105 436.176 232.605 436.074 232.158 435.87C231.711 435.661 231.357 435.36 231.096 434.966C230.838 434.572 230.71 434.089 230.71 433.517C230.71 433.025 230.804 432.62 230.994 432.301C231.183 431.983 231.439 431.731 231.761 431.546C232.083 431.36 232.442 431.22 232.84 431.125C233.238 431.031 233.643 430.959 234.056 430.909C234.579 430.849 235.003 430.799 235.329 430.762C235.655 430.72 235.891 430.654 236.039 430.563C236.187 430.472 236.261 430.324 236.261 430.12V430.08C236.261 429.584 236.121 429.199 235.84 428.926C235.564 428.654 235.151 428.517 234.602 428.517C234.03 428.517 233.579 428.644 233.249 428.898C232.924 429.148 232.698 429.426 232.573 429.733L230.977 429.37C231.166 428.839 231.442 428.411 231.806 428.085C232.174 427.756 232.596 427.517 233.073 427.37C233.55 427.218 234.052 427.142 234.579 427.142C234.927 427.142 235.297 427.184 235.687 427.267C236.081 427.347 236.448 427.495 236.789 427.71C237.134 427.926 237.416 428.235 237.636 428.637C237.855 429.034 237.965 429.551 237.965 430.188V435.983H236.306V434.79H236.238C236.128 435.01 235.963 435.226 235.744 435.438C235.524 435.65 235.242 435.826 234.897 435.966C234.552 436.106 234.139 436.176 233.658 436.176ZM234.028 434.813C234.497 434.813 234.899 434.72 235.232 434.534C235.569 434.349 235.825 434.106 235.999 433.807C236.177 433.504 236.266 433.18 236.266 432.835V431.71C236.206 431.771 236.088 431.828 235.914 431.881C235.744 431.93 235.549 431.974 235.329 432.012C235.109 432.046 234.895 432.078 234.687 432.108C234.478 432.135 234.304 432.157 234.164 432.176C233.835 432.218 233.533 432.288 233.261 432.387C232.992 432.485 232.776 432.627 232.613 432.813C232.454 432.995 232.374 433.237 232.374 433.54C232.374 433.96 232.53 434.279 232.84 434.495C233.151 434.707 233.547 434.813 234.028 434.813ZM232.96 426.199L231.817 426.165C231.817 425.536 231.986 425.034 232.323 424.659C232.664 424.284 233.085 424.097 233.585 424.097C233.816 424.097 234.018 424.137 234.192 424.216C234.367 424.292 234.53 424.381 234.681 424.483C234.836 424.582 234.99 424.671 235.141 424.75C235.297 424.826 235.469 424.864 235.658 424.864C235.878 424.864 236.056 424.781 236.192 424.614C236.333 424.447 236.403 424.241 236.403 423.995L237.522 424.068C237.522 424.701 237.352 425.199 237.011 425.563C236.67 425.923 236.251 426.104 235.755 426.108C235.486 426.108 235.263 426.07 235.085 425.995C234.91 425.915 234.755 425.826 234.619 425.727C234.482 425.625 234.342 425.534 234.198 425.455C234.054 425.375 233.882 425.335 233.681 425.335C233.469 425.335 233.295 425.419 233.158 425.585C233.026 425.748 232.96 425.953 232.96 426.199ZM243.904 436.159C243.086 436.159 242.372 435.972 241.762 435.597C241.152 435.222 240.679 434.697 240.342 434.023C240.004 433.349 239.836 432.561 239.836 431.659C239.836 430.754 240.004 429.962 240.342 429.284C240.679 428.606 241.152 428.08 241.762 427.705C242.372 427.33 243.086 427.142 243.904 427.142C244.722 427.142 245.436 427.33 246.046 427.705C246.656 428.08 247.129 428.606 247.467 429.284C247.804 429.962 247.972 430.754 247.972 431.659C247.972 432.561 247.804 433.349 247.467 434.023C247.129 434.697 246.656 435.222 246.046 435.597C245.436 435.972 244.722 436.159 243.904 436.159ZM243.91 434.733C244.44 434.733 244.879 434.593 245.228 434.313C245.576 434.032 245.834 433.659 246.001 433.193C246.171 432.727 246.256 432.214 246.256 431.654C246.256 431.097 246.171 430.585 246.001 430.12C245.834 429.65 245.576 429.273 245.228 428.989C244.879 428.705 244.44 428.563 243.91 428.563C243.376 428.563 242.933 428.705 242.58 428.989C242.232 429.273 241.972 429.65 241.802 430.12C241.635 430.585 241.552 431.097 241.552 431.654C241.552 432.214 241.635 432.727 241.802 433.193C241.972 433.659 242.232 434.032 242.58 434.313C242.933 434.593 243.376 434.733 243.91 434.733ZM255.802 430.801V435.983H254.103V427.256H255.734V428.676H255.842C256.042 428.214 256.357 427.843 256.785 427.563C257.217 427.282 257.76 427.142 258.415 427.142C259.01 427.142 259.531 427.267 259.978 427.517C260.425 427.763 260.772 428.131 261.018 428.62C261.264 429.108 261.387 429.712 261.387 430.432V435.983H259.688V430.637C259.688 430.004 259.523 429.51 259.194 429.154C258.864 428.794 258.412 428.614 257.836 428.614C257.442 428.614 257.092 428.699 256.785 428.87C256.482 429.04 256.241 429.29 256.063 429.62C255.889 429.945 255.802 430.339 255.802 430.801ZM266.205 436.176C265.652 436.176 265.152 436.074 264.705 435.87C264.258 435.661 263.904 435.36 263.643 434.966C263.385 434.572 263.256 434.089 263.256 433.517C263.256 433.025 263.351 432.62 263.54 432.301C263.73 431.983 263.986 431.731 264.308 431.546C264.629 431.36 264.989 431.22 265.387 431.125C265.785 431.031 266.19 430.959 266.603 430.909C267.126 430.849 267.55 430.799 267.876 430.762C268.201 430.72 268.438 430.654 268.586 430.563C268.734 430.472 268.808 430.324 268.808 430.12V430.08C268.808 429.584 268.667 429.199 268.387 428.926C268.111 428.654 267.698 428.517 267.148 428.517C266.576 428.517 266.126 428.644 265.796 428.898C265.47 429.148 265.245 429.426 265.12 429.733L263.523 429.37C263.713 428.839 263.989 428.411 264.353 428.085C264.72 427.756 265.143 427.517 265.62 427.37C266.097 427.218 266.599 427.142 267.126 427.142C267.474 427.142 267.844 427.184 268.234 427.267C268.628 427.347 268.995 427.495 269.336 427.71C269.681 427.926 269.963 428.235 270.183 428.637C270.402 429.034 270.512 429.551 270.512 430.188V435.983H268.853V434.79H268.785C268.675 435.01 268.51 435.226 268.29 435.438C268.071 435.65 267.789 435.826 267.444 435.966C267.099 436.106 266.686 436.176 266.205 436.176ZM266.575 434.813C267.044 434.813 267.446 434.72 267.779 434.534C268.116 434.349 268.372 434.106 268.546 433.807C268.724 433.504 268.813 433.18 268.813 432.835V431.71C268.753 431.771 268.635 431.828 268.461 431.881C268.29 431.93 268.095 431.974 267.876 432.012C267.656 432.046 267.442 432.078 267.234 432.108C267.025 432.135 266.851 432.157 266.711 432.176C266.381 432.218 266.08 432.288 265.808 432.387C265.539 432.485 265.323 432.627 265.16 432.813C265.001 432.995 264.921 433.237 264.921 433.54C264.921 433.96 265.076 434.279 265.387 434.495C265.698 434.707 266.094 434.813 266.575 434.813ZM277.009 435.983V427.256H278.64V428.676H278.748C278.93 428.195 279.227 427.82 279.64 427.551C280.053 427.279 280.547 427.142 281.123 427.142C281.706 427.142 282.195 427.279 282.589 427.551C282.987 427.824 283.28 428.199 283.469 428.676H283.56C283.769 428.21 284.1 427.839 284.555 427.563C285.009 427.282 285.551 427.142 286.18 427.142C286.971 427.142 287.617 427.39 288.117 427.887C288.621 428.383 288.873 429.131 288.873 430.131V435.983H287.174V430.29C287.174 429.699 287.013 429.271 286.691 429.006C286.369 428.741 285.985 428.608 285.538 428.608C284.985 428.608 284.555 428.779 284.248 429.12C283.941 429.457 283.788 429.89 283.788 430.421V435.983H282.094V430.182C282.094 429.709 281.947 429.328 281.651 429.04C281.356 428.752 280.971 428.608 280.498 428.608C280.176 428.608 279.879 428.693 279.606 428.864C279.337 429.031 279.119 429.263 278.952 429.563C278.79 429.862 278.708 430.209 278.708 430.602V435.983H277.009ZM293.69 436.176C293.137 436.176 292.637 436.074 292.19 435.87C291.743 435.661 291.388 435.36 291.127 434.966C290.87 434.572 290.741 434.089 290.741 433.517C290.741 433.025 290.835 432.62 291.025 432.301C291.214 431.983 291.47 431.731 291.792 431.546C292.114 431.36 292.474 431.22 292.871 431.125C293.269 431.031 293.674 430.959 294.087 430.909C294.61 430.849 295.034 430.799 295.36 430.762C295.686 430.72 295.923 430.654 296.07 430.563C296.218 430.472 296.292 430.324 296.292 430.12V430.08C296.292 429.584 296.152 429.199 295.871 428.926C295.595 428.654 295.182 428.517 294.633 428.517C294.061 428.517 293.61 428.644 293.281 428.898C292.955 429.148 292.729 429.426 292.604 429.733L291.008 429.37C291.197 428.839 291.474 428.411 291.837 428.085C292.205 427.756 292.627 427.517 293.104 427.37C293.582 427.218 294.084 427.142 294.61 427.142C294.959 427.142 295.328 427.184 295.718 427.267C296.112 427.347 296.479 427.495 296.82 427.71C297.165 427.926 297.447 428.235 297.667 428.637C297.887 429.034 297.996 429.551 297.996 430.188V435.983H296.337V434.79H296.269C296.159 435.01 295.995 435.226 295.775 435.438C295.555 435.65 295.273 435.826 294.928 435.966C294.584 436.106 294.171 436.176 293.69 436.176ZM294.059 434.813C294.529 434.813 294.93 434.72 295.263 434.534C295.601 434.349 295.856 434.106 296.031 433.807C296.209 433.504 296.298 433.18 296.298 432.835V431.71C296.237 431.771 296.12 431.828 295.945 431.881C295.775 431.93 295.58 431.974 295.36 432.012C295.14 432.046 294.926 432.078 294.718 432.108C294.51 432.135 294.335 432.157 294.195 432.176C293.866 432.218 293.565 432.288 293.292 432.387C293.023 432.485 292.807 432.627 292.644 432.813C292.485 432.995 292.406 433.237 292.406 433.54C292.406 433.96 292.561 434.279 292.871 434.495C293.182 434.707 293.578 434.813 294.059 434.813ZM306.799 429.387L305.259 429.659C305.195 429.462 305.093 429.275 304.952 429.097C304.816 428.919 304.63 428.773 304.396 428.659C304.161 428.546 303.867 428.489 303.515 428.489C303.034 428.489 302.632 428.597 302.31 428.813C301.988 429.025 301.827 429.299 301.827 429.637C301.827 429.928 301.935 430.163 302.151 430.341C302.367 430.519 302.716 430.665 303.197 430.779L304.583 431.097C305.386 431.282 305.985 431.568 306.379 431.955C306.772 432.341 306.969 432.843 306.969 433.46C306.969 433.983 306.818 434.449 306.515 434.858C306.216 435.263 305.797 435.582 305.259 435.813C304.725 436.044 304.106 436.159 303.401 436.159C302.424 436.159 301.627 435.951 301.009 435.534C300.392 435.114 300.013 434.517 299.873 433.745L301.515 433.495C301.617 433.923 301.827 434.246 302.146 434.466C302.464 434.682 302.879 434.79 303.39 434.79C303.947 434.79 304.392 434.674 304.725 434.443C305.058 434.209 305.225 433.923 305.225 433.585C305.225 433.313 305.123 433.084 304.918 432.898C304.718 432.712 304.409 432.572 303.992 432.477L302.515 432.154C301.701 431.968 301.098 431.673 300.708 431.267C300.322 430.862 300.129 430.349 300.129 429.727C300.129 429.212 300.272 428.762 300.56 428.375C300.848 427.989 301.246 427.688 301.754 427.472C302.261 427.252 302.843 427.142 303.498 427.142C304.441 427.142 305.183 427.347 305.725 427.756C306.267 428.161 306.625 428.705 306.799 429.387ZM315.377 429.387L313.837 429.659C313.773 429.462 313.671 429.275 313.531 429.097C313.394 428.919 313.209 428.773 312.974 428.659C312.739 428.546 312.445 428.489 312.093 428.489C311.612 428.489 311.21 428.597 310.888 428.813C310.567 429.025 310.406 429.299 310.406 429.637C310.406 429.928 310.513 430.163 310.729 430.341C310.945 430.519 311.294 430.665 311.775 430.779L313.161 431.097C313.964 431.282 314.563 431.568 314.957 431.955C315.351 432.341 315.548 432.843 315.548 433.46C315.548 433.983 315.396 434.449 315.093 434.858C314.794 435.263 314.375 435.582 313.837 435.813C313.303 436.044 312.684 436.159 311.979 436.159C311.002 436.159 310.205 435.951 309.587 435.534C308.97 435.114 308.591 434.517 308.451 433.745L310.093 433.495C310.195 433.923 310.406 434.246 310.724 434.466C311.042 434.682 311.457 434.79 311.968 434.79C312.525 434.79 312.97 434.674 313.303 434.443C313.637 434.209 313.803 433.923 313.803 433.585C313.803 433.313 313.701 433.084 313.496 432.898C313.296 432.712 312.987 432.572 312.57 432.477L311.093 432.154C310.279 431.968 309.676 431.673 309.286 431.267C308.9 430.862 308.707 430.349 308.707 429.727C308.707 429.212 308.851 428.762 309.138 428.375C309.426 427.989 309.824 427.688 310.332 427.472C310.839 427.252 311.421 427.142 312.076 427.142C313.019 427.142 313.762 427.347 314.303 427.756C314.845 428.161 315.203 428.705 315.377 429.387ZM319.955 436.176C319.402 436.176 318.902 436.074 318.455 435.87C318.008 435.661 317.654 435.36 317.393 434.966C317.135 434.572 317.006 434.089 317.006 433.517C317.006 433.025 317.101 432.62 317.29 432.301C317.48 431.983 317.736 431.731 318.058 431.546C318.379 431.36 318.739 431.22 319.137 431.125C319.535 431.031 319.94 430.959 320.353 430.909C320.876 430.849 321.3 430.799 321.626 430.762C321.951 430.72 322.188 430.654 322.336 430.563C322.484 430.472 322.558 430.324 322.558 430.12V430.08C322.558 429.584 322.417 429.199 322.137 428.926C321.861 428.654 321.448 428.517 320.898 428.517C320.326 428.517 319.876 428.644 319.546 428.898C319.22 429.148 318.995 429.426 318.87 429.733L317.273 429.37C317.463 428.839 317.739 428.411 318.103 428.085C318.47 427.756 318.893 427.517 319.37 427.37C319.847 427.218 320.349 427.142 320.876 427.142C321.224 427.142 321.594 427.184 321.984 427.267C322.378 427.347 322.745 427.495 323.086 427.71C323.431 427.926 323.713 428.235 323.933 428.637C324.152 429.034 324.262 429.551 324.262 430.188V435.983H322.603V434.79H322.535C322.425 435.01 322.26 435.226 322.04 435.438C321.821 435.65 321.539 435.826 321.194 435.966C320.849 436.106 320.436 436.176 319.955 436.176ZM320.325 434.813C320.794 434.813 321.196 434.72 321.529 434.534C321.866 434.349 322.122 434.106 322.296 433.807C322.474 433.504 322.563 433.18 322.563 432.835V431.71C322.503 431.771 322.385 431.828 322.211 431.881C322.04 431.93 321.845 431.974 321.626 432.012C321.406 432.046 321.192 432.078 320.984 432.108C320.775 432.135 320.601 432.157 320.461 432.176C320.131 432.218 319.83 432.288 319.558 432.387C319.289 432.485 319.073 432.627 318.91 432.813C318.751 432.995 318.671 433.237 318.671 433.54C318.671 433.96 318.826 434.279 319.137 434.495C319.448 434.707 319.844 434.813 320.325 434.813ZM201.115 452.131H199.342C199.274 451.752 199.147 451.419 198.962 451.131C198.776 450.843 198.549 450.599 198.28 450.398C198.011 450.197 197.71 450.046 197.376 449.943C197.047 449.841 196.696 449.79 196.325 449.79C195.655 449.79 195.054 449.959 194.524 450.296C193.998 450.633 193.581 451.127 193.274 451.779C192.971 452.43 192.82 453.226 192.82 454.165C192.82 455.112 192.971 455.911 193.274 456.563C193.581 457.214 194 457.707 194.53 458.04C195.06 458.373 195.657 458.54 196.32 458.54C196.687 458.54 197.036 458.491 197.365 458.392C197.698 458.29 198 458.14 198.268 457.943C198.537 457.746 198.765 457.506 198.95 457.222C199.14 456.934 199.27 456.604 199.342 456.233L201.115 456.239C201.02 456.811 200.837 457.337 200.564 457.818C200.295 458.296 199.948 458.709 199.524 459.057C199.104 459.402 198.623 459.669 198.081 459.858C197.539 460.048 196.948 460.142 196.308 460.142C195.301 460.142 194.403 459.904 193.615 459.426C192.827 458.945 192.206 458.258 191.751 457.364C191.301 456.47 191.075 455.404 191.075 454.165C191.075 452.923 191.303 451.856 191.757 450.966C192.212 450.072 192.833 449.387 193.621 448.909C194.409 448.428 195.304 448.188 196.308 448.188C196.926 448.188 197.501 448.277 198.036 448.455C198.573 448.629 199.056 448.887 199.484 449.227C199.912 449.565 200.267 449.977 200.547 450.466C200.827 450.951 201.017 451.506 201.115 452.131ZM206.756 460.159C205.938 460.159 205.223 459.972 204.614 459.597C204.004 459.222 203.53 458.697 203.193 458.023C202.856 457.349 202.688 456.561 202.688 455.659C202.688 454.754 202.856 453.962 203.193 453.284C203.53 452.606 204.004 452.08 204.614 451.705C205.223 451.33 205.938 451.142 206.756 451.142C207.574 451.142 208.288 451.33 208.898 451.705C209.508 452.08 209.981 452.606 210.318 453.284C210.655 453.962 210.824 454.754 210.824 455.659C210.824 456.561 210.655 457.349 210.318 458.023C209.981 458.697 209.508 459.222 208.898 459.597C208.288 459.972 207.574 460.159 206.756 460.159ZM206.761 458.733C207.292 458.733 207.731 458.593 208.08 458.313C208.428 458.032 208.686 457.659 208.852 457.193C209.023 456.727 209.108 456.214 209.108 455.654C209.108 455.097 209.023 454.585 208.852 454.12C208.686 453.65 208.428 453.273 208.08 452.989C207.731 452.705 207.292 452.563 206.761 452.563C206.227 452.563 205.784 452.705 205.432 452.989C205.083 453.273 204.824 453.65 204.653 454.12C204.487 454.585 204.403 455.097 204.403 455.654C204.403 456.214 204.487 456.727 204.653 457.193C204.824 457.659 205.083 458.032 205.432 458.313C205.784 458.593 206.227 458.733 206.761 458.733ZM214.419 454.801V459.983H212.72V451.256H214.351V452.676H214.459C214.66 452.214 214.974 451.843 215.402 451.563C215.834 451.282 216.377 451.142 217.033 451.142C217.627 451.142 218.148 451.267 218.595 451.517C219.042 451.763 219.389 452.131 219.635 452.62C219.881 453.108 220.004 453.712 220.004 454.432V459.983H218.305V454.637C218.305 454.004 218.141 453.51 217.811 453.154C217.482 452.794 217.029 452.614 216.453 452.614C216.059 452.614 215.709 452.699 215.402 452.87C215.099 453.04 214.858 453.29 214.68 453.62C214.506 453.945 214.419 454.339 214.419 454.801ZM226.357 451.256V452.62H221.589V451.256H226.357ZM222.868 449.165H224.567V457.421C224.567 457.75 224.616 457.998 224.714 458.165C224.813 458.328 224.94 458.44 225.095 458.5C225.254 458.557 225.427 458.585 225.612 458.585C225.749 458.585 225.868 458.576 225.97 458.557C226.072 458.538 226.152 458.523 226.209 458.512L226.516 459.915C226.417 459.953 226.277 459.991 226.095 460.029C225.913 460.07 225.686 460.093 225.413 460.097C224.966 460.104 224.55 460.025 224.163 459.858C223.777 459.691 223.464 459.434 223.226 459.085C222.987 458.737 222.868 458.299 222.868 457.773V449.165ZM231.903 460.159C231.044 460.159 230.303 459.976 229.682 459.608C229.064 459.237 228.587 458.716 228.25 458.046C227.917 457.371 227.75 456.582 227.75 455.676C227.75 454.782 227.917 453.995 228.25 453.313C228.587 452.631 229.057 452.099 229.659 451.716C230.265 451.334 230.973 451.142 231.784 451.142C232.277 451.142 232.754 451.224 233.216 451.387C233.678 451.549 234.093 451.805 234.46 452.154C234.828 452.502 235.117 452.955 235.33 453.512C235.542 454.065 235.648 454.737 235.648 455.529V456.131H228.71V454.858H233.983C233.983 454.411 233.892 454.015 233.71 453.671C233.528 453.322 233.273 453.048 232.943 452.847C232.617 452.646 232.235 452.546 231.795 452.546C231.318 452.546 230.902 452.663 230.545 452.898C230.193 453.129 229.92 453.432 229.727 453.807C229.538 454.178 229.443 454.582 229.443 455.017V456.012C229.443 456.595 229.545 457.091 229.75 457.5C229.958 457.909 230.248 458.222 230.619 458.438C230.991 458.65 231.424 458.756 231.92 458.756C232.242 458.756 232.536 458.71 232.801 458.62C233.066 458.525 233.295 458.385 233.489 458.199C233.682 458.013 233.83 457.784 233.932 457.512L235.54 457.801C235.411 458.275 235.18 458.69 234.847 459.046C234.517 459.398 234.102 459.673 233.602 459.87C233.106 460.063 232.54 460.159 231.903 460.159ZM243.061 456.364V451.256H244.766V459.983H243.095V458.472H243.004C242.804 458.938 242.482 459.326 242.038 459.637C241.599 459.943 241.052 460.097 240.396 460.097C239.836 460.097 239.339 459.974 238.908 459.727C238.48 459.477 238.143 459.108 237.896 458.62C237.654 458.131 237.533 457.527 237.533 456.807V451.256H239.232V456.602C239.232 457.197 239.396 457.671 239.726 458.023C240.055 458.375 240.483 458.551 241.01 458.551C241.328 458.551 241.644 458.472 241.959 458.313C242.277 458.154 242.54 457.913 242.749 457.591C242.961 457.269 243.065 456.86 243.061 456.364ZM240.459 450.091L241.788 447.472H243.578L241.817 450.091H240.459ZM250.315 460.154C249.611 460.154 248.982 459.974 248.429 459.614C247.88 459.25 247.448 458.733 247.134 458.063C246.823 457.388 246.668 456.58 246.668 455.637C246.668 454.693 246.825 453.887 247.139 453.216C247.457 452.546 247.893 452.032 248.446 451.676C248.999 451.32 249.626 451.142 250.327 451.142C250.868 451.142 251.304 451.233 251.634 451.415C251.967 451.593 252.224 451.801 252.406 452.04C252.592 452.279 252.736 452.489 252.838 452.671H252.94V448.347H254.639V459.983H252.98V458.625H252.838C252.736 458.811 252.588 459.023 252.395 459.262C252.205 459.5 251.944 459.709 251.611 459.887C251.277 460.065 250.846 460.154 250.315 460.154ZM250.69 458.705C251.179 458.705 251.592 458.576 251.929 458.318C252.27 458.057 252.527 457.695 252.702 457.233C252.88 456.771 252.969 456.233 252.969 455.62C252.969 455.013 252.882 454.483 252.707 454.029C252.533 453.574 252.277 453.22 251.94 452.966C251.603 452.712 251.187 452.585 250.69 452.585C250.179 452.585 249.753 452.718 249.412 452.983C249.071 453.248 248.813 453.61 248.639 454.068C248.469 454.527 248.384 455.044 248.384 455.62C248.384 456.203 248.471 456.727 248.645 457.193C248.819 457.659 249.077 458.029 249.418 458.301C249.762 458.57 250.187 458.705 250.69 458.705ZM260.74 460.159C259.922 460.159 259.208 459.972 258.598 459.597C257.988 459.222 257.515 458.697 257.178 458.023C256.84 457.349 256.672 456.561 256.672 455.659C256.672 454.754 256.84 453.962 257.178 453.284C257.515 452.606 257.988 452.08 258.598 451.705C259.208 451.33 259.922 451.142 260.74 451.142C261.558 451.142 262.272 451.33 262.882 451.705C263.492 452.08 263.965 452.606 264.303 453.284C264.64 453.962 264.808 454.754 264.808 455.659C264.808 456.561 264.64 457.349 264.303 458.023C263.965 458.697 263.492 459.222 262.882 459.597C262.272 459.972 261.558 460.159 260.74 460.159ZM260.746 458.733C261.276 458.733 261.715 458.593 262.064 458.313C262.412 458.032 262.67 457.659 262.837 457.193C263.007 456.727 263.092 456.214 263.092 455.654C263.092 455.097 263.007 454.585 262.837 454.12C262.67 453.65 262.412 453.273 262.064 452.989C261.715 452.705 261.276 452.563 260.746 452.563C260.212 452.563 259.768 452.705 259.416 452.989C259.068 453.273 258.808 453.65 258.638 454.12C258.471 454.585 258.388 455.097 258.388 455.654C258.388 456.214 258.471 456.727 258.638 457.193C258.808 457.659 259.068 458.032 259.416 458.313C259.768 458.593 260.212 458.733 260.746 458.733ZM273.244 453.387L271.705 453.659C271.64 453.462 271.538 453.275 271.398 453.097C271.261 452.919 271.076 452.773 270.841 452.659C270.606 452.546 270.313 452.489 269.96 452.489C269.479 452.489 269.078 452.597 268.756 452.813C268.434 453.025 268.273 453.299 268.273 453.637C268.273 453.928 268.381 454.163 268.597 454.341C268.813 454.519 269.161 454.665 269.642 454.779L271.028 455.097C271.831 455.282 272.43 455.568 272.824 455.955C273.218 456.341 273.415 456.843 273.415 457.46C273.415 457.983 273.263 458.449 272.96 458.858C272.661 459.263 272.242 459.582 271.705 459.813C271.17 460.044 270.551 460.159 269.847 460.159C268.869 460.159 268.072 459.951 267.455 459.534C266.837 459.114 266.458 458.517 266.318 457.745L267.96 457.495C268.063 457.923 268.273 458.246 268.591 458.466C268.909 458.682 269.324 458.79 269.835 458.79C270.392 458.79 270.837 458.674 271.17 458.443C271.504 458.209 271.67 457.923 271.67 457.585C271.67 457.313 271.568 457.084 271.364 456.898C271.163 456.712 270.854 456.572 270.438 456.477L268.96 456.154C268.146 455.968 267.544 455.673 267.153 455.267C266.767 454.862 266.574 454.349 266.574 453.727C266.574 453.212 266.718 452.762 267.006 452.375C267.294 451.989 267.691 451.688 268.199 451.472C268.706 451.252 269.288 451.142 269.943 451.142C270.886 451.142 271.629 451.347 272.17 451.756C272.712 452.161 273.07 452.705 273.244 453.387ZM286.057 453.387L284.517 453.659C284.453 453.462 284.35 453.275 284.21 453.097C284.074 452.919 283.888 452.773 283.653 452.659C283.419 452.546 283.125 452.489 282.773 452.489C282.292 452.489 281.89 452.597 281.568 452.813C281.246 453.025 281.085 453.299 281.085 453.637C281.085 453.928 281.193 454.163 281.409 454.341C281.625 454.519 281.973 454.665 282.455 454.779L283.841 455.097C284.644 455.282 285.242 455.568 285.636 455.955C286.03 456.341 286.227 456.843 286.227 457.46C286.227 457.983 286.076 458.449 285.773 458.858C285.473 459.263 285.055 459.582 284.517 459.813C283.983 460.044 283.364 460.159 282.659 460.159C281.682 460.159 280.884 459.951 280.267 459.534C279.65 459.114 279.271 458.517 279.131 457.745L280.773 457.495C280.875 457.923 281.085 458.246 281.403 458.466C281.722 458.682 282.136 458.79 282.648 458.79C283.205 458.79 283.65 458.674 283.983 458.443C284.316 458.209 284.483 457.923 284.483 457.585C284.483 457.313 284.381 457.084 284.176 456.898C283.975 456.712 283.667 456.572 283.25 456.477L281.773 456.154C280.958 455.968 280.356 455.673 279.966 455.267C279.58 454.862 279.386 454.349 279.386 453.727C279.386 453.212 279.53 452.762 279.818 452.375C280.106 451.989 280.504 451.688 281.011 451.472C281.519 451.252 282.1 451.142 282.756 451.142C283.699 451.142 284.441 451.347 284.983 451.756C285.525 452.161 285.883 452.705 286.057 453.387ZM291.857 460.159C290.997 460.159 290.256 459.976 289.635 459.608C289.018 459.237 288.54 458.716 288.203 458.046C287.87 457.371 287.703 456.582 287.703 455.676C287.703 454.782 287.87 453.995 288.203 453.313C288.54 452.631 289.01 452.099 289.612 451.716C290.218 451.334 290.927 451.142 291.737 451.142C292.23 451.142 292.707 451.224 293.169 451.387C293.631 451.549 294.046 451.805 294.413 452.154C294.781 452.502 295.071 452.955 295.283 453.512C295.495 454.065 295.601 454.737 295.601 455.529V456.131H288.663V454.858H293.936C293.936 454.411 293.845 454.015 293.663 453.671C293.482 453.322 293.226 453.048 292.896 452.847C292.571 452.646 292.188 452.546 291.749 452.546C291.271 452.546 290.855 452.663 290.499 452.898C290.146 453.129 289.874 453.432 289.68 453.807C289.491 454.178 289.396 454.582 289.396 455.017V456.012C289.396 456.595 289.499 457.091 289.703 457.5C289.911 457.909 290.201 458.222 290.572 458.438C290.944 458.65 291.377 458.756 291.874 458.756C292.196 458.756 292.489 458.71 292.754 458.62C293.019 458.525 293.249 458.385 293.442 458.199C293.635 458.013 293.783 457.784 293.885 457.512L295.493 457.801C295.364 458.275 295.133 458.69 294.8 459.046C294.47 459.398 294.055 459.673 293.555 459.87C293.059 460.063 292.493 460.159 291.857 460.159ZM297.486 459.983V451.256H299.116V452.676H299.224C299.406 452.195 299.704 451.82 300.116 451.551C300.529 451.279 301.024 451.142 301.599 451.142C302.183 451.142 302.671 451.279 303.065 451.551C303.463 451.824 303.757 452.199 303.946 452.676H304.037C304.245 452.21 304.577 451.839 305.031 451.563C305.486 451.282 306.027 451.142 306.656 451.142C307.448 451.142 308.094 451.39 308.594 451.887C309.098 452.383 309.349 453.131 309.349 454.131V459.983H307.651V454.29C307.651 453.699 307.49 453.271 307.168 453.006C306.846 452.741 306.461 452.608 306.014 452.608C305.461 452.608 305.031 452.779 304.724 453.12C304.418 453.457 304.264 453.89 304.264 454.421V459.983H302.571V454.182C302.571 453.709 302.423 453.328 302.128 453.04C301.832 452.752 301.448 452.608 300.974 452.608C300.652 452.608 300.355 452.693 300.082 452.864C299.813 453.031 299.596 453.263 299.429 453.563C299.266 453.862 299.185 454.209 299.185 454.602V459.983H297.486ZM314.166 460.176C313.613 460.176 313.113 460.074 312.666 459.87C312.219 459.661 311.865 459.36 311.604 458.966C311.346 458.572 311.217 458.089 311.217 457.517C311.217 457.025 311.312 456.62 311.501 456.301C311.691 455.983 311.946 455.731 312.268 455.546C312.59 455.36 312.95 455.22 313.348 455.125C313.746 455.031 314.151 454.959 314.564 454.909C315.087 454.849 315.511 454.799 315.837 454.762C316.162 454.72 316.399 454.654 316.547 454.563C316.695 454.472 316.768 454.324 316.768 454.12V454.08C316.768 453.584 316.628 453.199 316.348 452.926C316.071 452.654 315.659 452.517 315.109 452.517C314.537 452.517 314.087 452.644 313.757 452.898C313.431 453.148 313.206 453.426 313.081 453.733L311.484 453.37C311.674 452.839 311.95 452.411 312.314 452.085C312.681 451.756 313.104 451.517 313.581 451.37C314.058 451.218 314.56 451.142 315.087 451.142C315.435 451.142 315.804 451.184 316.195 451.267C316.589 451.347 316.956 451.495 317.297 451.71C317.642 451.926 317.924 452.235 318.143 452.637C318.363 453.034 318.473 453.551 318.473 454.188V459.983H316.814V458.79H316.746C316.636 459.01 316.471 459.226 316.251 459.438C316.032 459.65 315.75 459.826 315.405 459.966C315.06 460.106 314.647 460.176 314.166 460.176ZM314.536 458.813C315.005 458.813 315.407 458.72 315.74 458.534C316.077 458.349 316.333 458.106 316.507 457.807C316.685 457.504 316.774 457.18 316.774 456.835V455.71C316.714 455.771 316.596 455.828 316.422 455.881C316.251 455.93 316.056 455.974 315.837 456.012C315.617 456.046 315.403 456.078 315.195 456.108C314.986 456.135 314.812 456.157 314.672 456.176C314.342 456.218 314.041 456.288 313.768 456.387C313.5 456.485 313.284 456.627 313.121 456.813C312.962 456.995 312.882 457.237 312.882 457.54C312.882 457.96 313.037 458.279 313.348 458.495C313.659 458.707 314.054 458.813 314.536 458.813ZM322.435 454.801V459.983H320.736V451.256H322.366V452.676H322.474C322.675 452.214 322.99 451.843 323.418 451.563C323.849 451.282 324.393 451.142 325.048 451.142C325.643 451.142 326.164 451.267 326.611 451.517C327.058 451.763 327.404 452.131 327.651 452.62C327.897 453.108 328.02 453.712 328.02 454.432V459.983H326.321V454.637C326.321 454.004 326.156 453.51 325.827 453.154C325.497 452.794 325.045 452.614 324.469 452.614C324.075 452.614 323.724 452.699 323.418 452.87C323.115 453.04 322.874 453.29 322.696 453.62C322.522 453.945 322.435 454.339 322.435 454.801ZM332.838 460.176C332.285 460.176 331.785 460.074 331.338 459.87C330.891 459.661 330.537 459.36 330.276 458.966C330.018 458.572 329.889 458.089 329.889 457.517C329.889 457.025 329.984 456.62 330.173 456.301C330.363 455.983 330.618 455.731 330.94 455.546C331.262 455.36 331.622 455.22 332.02 455.125C332.418 455.031 332.823 454.959 333.236 454.909C333.759 454.849 334.183 454.799 334.509 454.762C334.834 454.72 335.071 454.654 335.219 454.563C335.366 454.472 335.44 454.324 335.44 454.12V454.08C335.44 453.584 335.3 453.199 335.02 452.926C334.743 452.654 334.33 452.517 333.781 452.517C333.209 452.517 332.759 452.644 332.429 452.898C332.103 453.148 331.878 453.426 331.753 453.733L330.156 453.37C330.346 452.839 330.622 452.411 330.986 452.085C331.353 451.756 331.776 451.517 332.253 451.37C332.73 451.218 333.232 451.142 333.759 451.142C334.107 451.142 334.476 451.184 334.866 451.267C335.26 451.347 335.628 451.495 335.969 451.71C336.313 451.926 336.596 452.235 336.815 452.637C337.035 453.034 337.145 453.551 337.145 454.188V459.983H335.486V458.79H335.418C335.308 459.01 335.143 459.226 334.923 459.438C334.704 459.65 334.421 459.826 334.077 459.966C333.732 460.106 333.319 460.176 332.838 460.176ZM333.207 458.813C333.677 458.813 334.079 458.72 334.412 458.534C334.749 458.349 335.005 458.106 335.179 457.807C335.357 457.504 335.446 457.18 335.446 456.835V455.71C335.385 455.771 335.268 455.828 335.094 455.881C334.923 455.93 334.728 455.974 334.509 456.012C334.289 456.046 334.075 456.078 333.866 456.108C333.658 456.135 333.484 456.157 333.344 456.176C333.014 456.218 332.713 456.288 332.44 456.387C332.171 456.485 331.955 456.627 331.793 456.813C331.634 456.995 331.554 457.237 331.554 457.54C331.554 457.96 331.709 458.279 332.02 458.495C332.33 458.707 332.726 458.813 333.207 458.813ZM339.408 459.983V451.256H341.107V459.983H339.408ZM340.266 449.909C339.97 449.909 339.716 449.811 339.504 449.614C339.296 449.413 339.192 449.174 339.192 448.898C339.192 448.618 339.296 448.379 339.504 448.182C339.716 447.981 339.97 447.881 340.266 447.881C340.561 447.881 340.813 447.981 341.021 448.182C341.233 448.379 341.339 448.618 341.339 448.898C341.339 449.174 341.233 449.413 341.021 449.614C340.813 449.811 340.561 449.909 340.266 449.909ZM349.932 453.387L348.392 453.659C348.328 453.462 348.225 453.275 348.085 453.097C347.949 452.919 347.763 452.773 347.528 452.659C347.294 452.546 347 452.489 346.648 452.489C346.167 452.489 345.765 452.597 345.443 452.813C345.121 453.025 344.96 453.299 344.96 453.637C344.96 453.928 345.068 454.163 345.284 454.341C345.5 454.519 345.848 454.665 346.33 454.779L347.716 455.097C348.519 455.282 349.117 455.568 349.511 455.955C349.905 456.341 350.102 456.843 350.102 457.46C350.102 457.983 349.951 458.449 349.648 458.858C349.348 459.263 348.93 459.582 348.392 459.813C347.858 460.044 347.239 460.159 346.534 460.159C345.557 460.159 344.759 459.951 344.142 459.534C343.525 459.114 343.146 458.517 343.006 457.745L344.648 457.495C344.75 457.923 344.96 458.246 345.278 458.466C345.597 458.682 346.011 458.79 346.523 458.79C347.08 458.79 347.525 458.674 347.858 458.443C348.191 458.209 348.358 457.923 348.358 457.585C348.358 457.313 348.256 457.084 348.051 456.898C347.85 456.712 347.542 456.572 347.125 456.477L345.648 456.154C344.833 455.968 344.231 455.673 343.841 455.267C343.455 454.862 343.261 454.349 343.261 453.727C343.261 453.212 343.405 452.762 343.693 452.375C343.981 451.989 344.379 451.688 344.886 451.472C345.394 451.252 345.975 451.142 346.631 451.142C347.574 451.142 348.316 451.347 348.858 451.756C349.4 452.161 349.758 452.705 349.932 453.387Z" fill="#06080A"/>
<defs>
<filter id="filter0_f_5512_6897" x="-224.197" y="-362.044" width="988.384" height="584.136" filterUnits="userSpaceOnUse" color-interpolation-filters="sRGB">
<feFlood flood-opacity="0" result="BackgroundImageFix"/>
<feBlend mode="normal" in="SourceGraphic" in2="BackgroundImageFix" result="shape"/>
<feGaussianBlur stdDeviation="80" result="effect1_foregroundBlur_5512_6897"/>
</filter>
<filter id="filter1_d_5512_6897" x="149" y="149.09" width="242" height="241.961" filterUnits="userSpaceOnUse" color-interpolation-filters="sRGB">
<feFlood flood-opacity="0" result="BackgroundImageFix"/>
<feColorMatrix in="SourceAlpha" type="matrix" values="0 0 0 0 0 0 0 0 0 0 0 0 0 0 0 0 0 0 127 0" result="hardAlpha"/>
<feOffset/>
<feGaussianBlur stdDeviation="20"/>
<feComposite in2="hardAlpha" operator="out"/>
<feColorMatrix type="matrix" values="0 0 0 0 1 0 0 0 0 1 0 0 0 0 1 0 0 0 0.5 0"/>
<feBlend mode="normal" in2="BackgroundImageFix" result="effect1_dropShadow_5512_6897"/>
<feBlend mode="normal" in="SourceGraphic" in2="effect1_dropShadow_5512_6897" result="shape"/>
</filter>
<linearGradient id="paint0_linear_5512_6897" x1="269.5" y1="0.135254" x2="269.955" y2="269.056" gradientUnits="userSpaceOnUse">
<stop stop-color="white"/>
<stop offset="1" stop-color="white" stop-opacity="0"/>
</linearGradient>
<linearGradient id="paint1_linear_5512_6897" x1="269.539" y1="-2.72592e-08" x2="269.995" y2="269.064" gradientUnits="userSpaceOnUse">
<stop stop-color="white"/>
<stop offset="1" stop-color="white" stop-opacity="0"/>
</linearGradient>
</defs>
</svg>
