<svg width="547" height="546" viewBox="0 0 547 546" fill="none" xmlns="http://www.w3.org/2000/svg">
<path d="M545.875 272.508C545.875 422.455 423.948 544.016 273.538 544.016C123.127 544.016 1.2002 422.455 1.2002 272.508C1.2002 122.561 123.127 0.999939 273.538 0.999939C423.948 0.999939 545.875 122.561 545.875 272.508Z" fill="#89F363" stroke="url(#paint0_linear_2004_2778)" stroke-width="2"/>
<ellipse cx="274" cy="273.896" rx="86.025" ry="86.0552" fill="black"/>
<path d="M253.43 268.062V266.308C253.43 265.227 253.615 264.339 253.985 263.644C254.355 262.948 254.881 262.386 255.562 261.957C256.257 261.513 257.093 261.143 258.07 260.847L259.424 260.425C260.031 260.232 260.549 259.996 260.978 259.714C261.422 259.433 261.763 259.085 262 258.671C262.236 258.242 262.355 257.746 262.355 257.184V257.095C262.355 256.222 262.059 255.541 261.467 255.052C260.875 254.549 260.098 254.298 259.136 254.298C258.144 254.298 257.338 254.564 256.716 255.097C256.109 255.63 255.806 256.414 255.806 257.45V257.805H253.497V257.472C253.497 256.347 253.741 255.4 254.23 254.631C254.718 253.846 255.391 253.247 256.25 252.832C257.108 252.418 258.07 252.211 259.136 252.211C260.201 252.211 261.149 252.411 261.977 252.81C262.821 253.21 263.48 253.772 263.953 254.497C264.442 255.223 264.686 256.074 264.686 257.05V257.25C264.686 258.257 264.486 259.093 264.086 259.759C263.687 260.425 263.132 260.972 262.421 261.402C261.726 261.831 260.919 262.193 260.002 262.489L258.692 262.889C257.996 263.096 257.434 263.326 257.005 263.577C256.59 263.814 256.279 264.103 256.072 264.443C255.88 264.783 255.784 265.22 255.784 265.753V265.975H264.553V268.062H253.43ZM272.115 268.372C270.309 268.372 268.867 267.862 267.786 266.841C266.721 265.805 266.188 264.251 266.188 262.179V258.405C266.188 256.377 266.721 254.838 267.786 253.787C268.867 252.736 270.309 252.211 272.115 252.211C273.935 252.211 275.378 252.736 276.444 253.787C277.524 254.838 278.065 256.377 278.065 258.405V262.179C278.065 264.251 277.524 265.805 276.444 266.841C275.378 267.862 273.935 268.372 272.115 268.372ZM272.115 266.286C273.343 266.286 274.254 265.938 274.846 265.242C275.438 264.532 275.734 263.54 275.734 262.267V258.271C275.734 256.999 275.415 256.022 274.779 255.341C274.143 254.645 273.255 254.298 272.115 254.298C270.961 254.298 270.073 254.653 269.451 255.363C268.83 256.059 268.519 257.028 268.519 258.271V262.267C268.519 263.57 268.815 264.569 269.407 265.264C270.013 265.945 270.916 266.286 272.115 266.286ZM281.739 268.35L280.319 267.196L292.462 252.233L293.883 253.387L281.739 268.35ZM291.352 268.306C290.257 268.306 289.391 268.002 288.755 267.396C288.118 266.774 287.8 265.938 287.8 264.887V264.754C287.8 263.688 288.118 262.852 288.755 262.245C289.391 261.624 290.257 261.313 291.352 261.313C292.432 261.313 293.298 261.624 293.949 262.245C294.601 262.852 294.926 263.688 294.926 264.754V264.887C294.926 265.938 294.601 266.774 293.949 267.396C293.313 268.002 292.447 268.306 291.352 268.306ZM291.352 266.752C291.885 266.752 292.299 266.589 292.595 266.263C292.906 265.938 293.061 265.509 293.061 264.976V264.665C293.061 264.117 292.906 263.681 292.595 263.355C292.299 263.03 291.885 262.867 291.352 262.867C290.834 262.867 290.42 263.03 290.109 263.355C289.813 263.681 289.665 264.117 289.665 264.665V264.976C289.665 265.509 289.813 265.938 290.109 266.263C290.42 266.589 290.834 266.752 291.352 266.752ZM282.849 259.27C281.754 259.27 280.881 258.967 280.23 258.36C279.593 257.739 279.275 256.902 279.275 255.852V255.696C279.275 254.631 279.593 253.794 280.23 253.188C280.881 252.581 281.754 252.277 282.849 252.277C283.93 252.277 284.788 252.581 285.425 253.188C286.076 253.794 286.401 254.631 286.401 255.696V255.852C286.401 256.902 286.083 257.739 285.447 258.36C284.81 258.967 283.945 259.27 282.849 259.27ZM282.849 257.716C283.367 257.716 283.774 257.554 284.07 257.228C284.381 256.888 284.537 256.451 284.537 255.918V255.607C284.537 255.075 284.381 254.645 284.07 254.32C283.774 253.994 283.367 253.831 282.849 253.831C282.317 253.831 281.895 253.994 281.584 254.32C281.288 254.645 281.14 255.075 281.14 255.607V255.918C281.14 256.451 281.288 256.888 281.584 257.228C281.895 257.554 282.317 257.716 282.849 257.716ZM249.695 294.062C249.029 294.062 248.496 293.862 248.096 293.462C247.712 293.063 247.519 292.53 247.519 291.864V285.048H244.5V283.117H247.519V279.498H249.806V283.117H253.069V285.048H249.806V291.464C249.806 291.908 250.013 292.13 250.427 292.13H252.714V294.062H249.695ZM259.716 294.372C258.606 294.372 257.637 294.143 256.808 293.684C255.979 293.211 255.328 292.552 254.855 291.708C254.396 290.85 254.166 289.858 254.166 288.734V288.467C254.166 287.328 254.396 286.336 254.855 285.492C255.313 284.634 255.95 283.975 256.764 283.517C257.593 283.043 258.547 282.806 259.628 282.806C260.678 282.806 261.596 283.043 262.38 283.517C263.18 283.975 263.801 284.619 264.245 285.448C264.689 286.277 264.911 287.246 264.911 288.356V289.222H256.497C256.527 290.184 256.845 290.954 257.452 291.531C258.074 292.093 258.843 292.374 259.761 292.374C260.619 292.374 261.263 292.182 261.692 291.797C262.136 291.412 262.477 290.968 262.713 290.465L264.6 291.442C264.393 291.856 264.09 292.293 263.69 292.752C263.305 293.211 262.795 293.595 262.158 293.906C261.522 294.217 260.708 294.372 259.716 294.372ZM256.52 287.468H262.58C262.521 286.639 262.225 285.996 261.692 285.537C261.159 285.063 260.464 284.826 259.605 284.826C258.747 284.826 258.044 285.063 257.496 285.537C256.964 285.996 256.638 286.639 256.52 287.468ZM272.126 294.372C271.031 294.372 270.054 294.15 269.196 293.706C268.352 293.248 267.686 292.596 267.198 291.753C266.709 290.909 266.465 289.91 266.465 288.756V288.423C266.465 287.268 266.709 286.277 267.198 285.448C267.686 284.604 268.352 283.953 269.196 283.494C270.054 283.036 271.031 282.806 272.126 282.806C273.221 282.806 274.198 283.036 275.056 283.494C275.915 283.953 276.588 284.604 277.077 285.448C277.565 286.277 277.809 287.268 277.809 288.423V288.756C277.809 289.91 277.565 290.909 277.077 291.753C276.588 292.596 275.915 293.248 275.056 293.706C274.198 294.15 273.221 294.372 272.126 294.372ZM272.126 292.33C273.132 292.33 273.946 292.012 274.568 291.375C275.204 290.724 275.523 289.829 275.523 288.689V288.489C275.523 287.35 275.212 286.462 274.59 285.825C273.969 285.174 273.147 284.849 272.126 284.849C271.134 284.849 270.32 285.174 269.684 285.825C269.062 286.462 268.752 287.35 268.752 288.489V288.689C268.752 289.829 269.062 290.724 269.684 291.375C270.32 292.012 271.134 292.33 272.126 292.33ZM279.99 294.062V283.117H282.232V284.405H282.587C282.765 283.946 283.046 283.613 283.431 283.406C283.831 283.184 284.319 283.073 284.896 283.073H286.206V285.137H284.807C284.067 285.137 283.461 285.344 282.987 285.759C282.513 286.158 282.277 286.78 282.277 287.624V294.062H279.99ZM287.909 294.062V283.117H290.196V294.062H287.909ZM289.063 281.63C288.619 281.63 288.242 281.489 287.931 281.208C287.635 280.912 287.487 280.534 287.487 280.076C287.487 279.617 287.635 279.247 287.931 278.966C288.242 278.67 288.619 278.522 289.063 278.522C289.522 278.522 289.9 278.67 290.196 278.966C290.492 279.247 290.64 279.617 290.64 280.076C290.64 280.534 290.492 280.912 290.196 281.208C289.9 281.489 289.522 281.63 289.063 281.63ZM296.32 294.372C295.535 294.372 294.832 294.239 294.211 293.973C293.604 293.706 293.116 293.314 292.746 292.796C292.39 292.278 292.213 291.649 292.213 290.909C292.213 290.154 292.39 289.533 292.746 289.044C293.116 288.541 293.611 288.164 294.233 287.912C294.869 287.661 295.587 287.535 296.386 287.535H299.716V286.824C299.716 286.188 299.524 285.677 299.139 285.293C298.754 284.908 298.162 284.715 297.363 284.715C296.579 284.715 295.979 284.9 295.565 285.27C295.151 285.64 294.877 286.121 294.744 286.713L292.612 286.025C292.79 285.433 293.071 284.9 293.456 284.427C293.856 283.938 294.381 283.546 295.032 283.25C295.683 282.954 296.468 282.806 297.385 282.806C298.806 282.806 299.924 283.169 300.738 283.894C301.552 284.619 301.959 285.648 301.959 286.98V291.486C301.959 291.93 302.166 292.152 302.58 292.152H303.513V294.062H301.803C301.285 294.062 300.863 293.928 300.538 293.662C300.212 293.396 300.049 293.033 300.049 292.574V292.508H299.716C299.598 292.73 299.42 292.989 299.184 293.285C298.947 293.581 298.599 293.84 298.14 294.062C297.681 294.269 297.075 294.372 296.32 294.372ZM296.653 292.485C297.57 292.485 298.31 292.226 298.873 291.708C299.435 291.176 299.716 290.45 299.716 289.533V289.311H296.52C295.913 289.311 295.424 289.444 295.054 289.71C294.684 289.962 294.499 290.339 294.499 290.843C294.499 291.346 294.692 291.745 295.077 292.041C295.461 292.337 295.987 292.485 296.653 292.485Z" fill="white"/>
<path d="M259.456 84.2328C258.258 84.2328 257.207 84.0552 256.304 83.7C255.416 83.3448 254.72 82.8342 254.217 82.1682C253.729 81.4874 253.485 80.6956 253.485 79.7928V79.5486C253.485 78.8086 253.625 78.2018 253.906 77.7282C254.202 77.2398 254.558 76.8624 254.972 76.596C255.401 76.3148 255.801 76.1298 256.171 76.041V75.6858C255.801 75.5822 255.423 75.3972 255.039 75.1308C254.654 74.8496 254.336 74.487 254.084 74.043C253.847 73.5842 253.729 73.0366 253.729 72.4002V72.156C253.729 71.3272 253.966 70.6094 254.439 70.0026C254.928 69.3958 255.601 68.9222 256.459 68.5818C257.318 68.2414 258.317 68.0712 259.456 68.0712C260.581 68.0712 261.573 68.2414 262.431 68.5818C263.29 68.9222 263.956 69.3958 264.429 70.0026C264.918 70.6094 265.162 71.3272 265.162 72.156V72.4002C265.162 73.0366 265.036 73.5842 264.784 74.043C264.548 74.487 264.244 74.8496 263.874 75.1308C263.504 75.3972 263.127 75.5822 262.742 75.6858V76.041C263.127 76.1298 263.526 76.3148 263.941 76.596C264.355 76.8624 264.703 77.2398 264.984 77.7282C265.265 78.2018 265.406 78.8086 265.406 79.5486V79.7928C265.406 80.6956 265.154 81.4874 264.651 82.1682C264.163 82.8342 263.467 83.3448 262.564 83.7C261.676 84.0552 260.64 84.2328 259.456 84.2328ZM259.456 82.146C260.581 82.146 261.462 81.9314 262.098 81.5022C262.749 81.0582 263.075 80.444 263.075 79.6596V79.482C263.075 78.6828 262.757 78.0686 262.12 77.6394C261.499 77.1954 260.611 76.9734 259.456 76.9734C258.302 76.9734 257.407 77.1954 256.77 77.6394C256.134 78.0686 255.816 78.6828 255.816 79.482V79.6596C255.816 80.444 256.134 81.0582 256.77 81.5022C257.421 81.9314 258.317 82.146 259.456 82.146ZM259.456 74.8866C260.507 74.8866 261.329 74.6868 261.921 74.2872C262.527 73.8876 262.831 73.3252 262.831 72.6V72.4224C262.831 71.6972 262.527 71.1422 261.921 70.7574C261.314 70.3578 260.492 70.158 259.456 70.158C258.406 70.158 257.577 70.3578 256.97 70.7574C256.363 71.1422 256.06 71.6972 256.06 72.4224V72.6C256.06 73.3252 256.356 73.8876 256.948 74.2872C257.555 74.6868 258.391 74.8866 259.456 74.8866ZM272.717 84.2328C270.911 84.2328 269.468 83.7222 268.388 82.701C267.322 81.665 266.79 80.111 266.79 78.039V74.265C266.79 72.2374 267.322 70.6982 268.388 69.6474C269.468 68.5966 270.911 68.0712 272.717 68.0712C274.537 68.0712 275.98 68.5966 277.046 69.6474C278.126 70.6982 278.667 72.2374 278.667 74.265V78.039C278.667 80.111 278.126 81.665 277.046 82.701C275.98 83.7222 274.537 84.2328 272.717 84.2328ZM272.717 82.146C273.945 82.146 274.856 81.7982 275.448 81.1026C276.04 80.3922 276.336 79.4006 276.336 78.1278V74.1318C276.336 72.859 276.017 71.8822 275.381 71.2014C274.745 70.5058 273.857 70.158 272.717 70.158C271.563 70.158 270.675 70.5132 270.053 71.2236C269.431 71.9192 269.121 72.8886 269.121 74.1318V78.1278C269.121 79.4302 269.417 80.4292 270.009 81.1248C270.615 81.8056 271.518 82.146 272.717 82.146ZM282.341 84.2106L280.921 83.0562L293.064 68.0934L294.485 69.2478L282.341 84.2106ZM291.954 84.1662C290.859 84.1662 289.993 83.8628 289.357 83.256C288.72 82.6344 288.402 81.7982 288.402 80.7474V80.6142C288.402 79.5486 288.72 78.7124 289.357 78.1056C289.993 77.484 290.859 77.1732 291.954 77.1732C293.034 77.1732 293.9 77.484 294.551 78.1056C295.203 78.7124 295.528 79.5486 295.528 80.6142V80.7474C295.528 81.7982 295.203 82.6344 294.551 83.256C293.915 83.8628 293.049 84.1662 291.954 84.1662ZM291.954 82.6122C292.487 82.6122 292.901 82.4494 293.197 82.1238C293.508 81.7982 293.663 81.369 293.663 80.8362V80.5254C293.663 79.9778 293.508 79.5412 293.197 79.2156C292.901 78.89 292.487 78.7272 291.954 78.7272C291.436 78.7272 291.022 78.89 290.711 79.2156C290.415 79.5412 290.267 79.9778 290.267 80.5254V80.8362C290.267 81.369 290.415 81.7982 290.711 82.1238C291.022 82.4494 291.436 82.6122 291.954 82.6122ZM283.451 75.1308C282.356 75.1308 281.483 74.8274 280.832 74.2206C280.195 73.599 279.877 72.7628 279.877 71.712V71.5566C279.877 70.491 280.195 69.6548 280.832 69.048C281.483 68.4412 282.356 68.1378 283.451 68.1378C284.532 68.1378 285.39 68.4412 286.027 69.048C286.678 69.6548 287.003 70.491 287.003 71.5566V71.712C287.003 72.7628 286.685 73.599 286.049 74.2206C285.412 74.8274 284.547 75.1308 283.451 75.1308ZM283.451 73.5768C283.969 73.5768 284.376 73.414 284.672 73.0884C284.983 72.748 285.139 72.3114 285.139 71.7786V71.4678C285.139 70.935 284.983 70.5058 284.672 70.1802C284.376 69.8546 283.969 69.6918 283.451 69.6918C282.919 69.6918 282.497 69.8546 282.186 70.1802C281.89 70.5058 281.742 70.935 281.742 71.4678V71.7786C281.742 72.3114 281.89 72.748 282.186 73.0884C282.497 73.414 282.919 73.5768 283.451 73.5768ZM239.932 114.362V98.9774H242.174V100.554H242.529C242.811 100.065 243.232 99.6286 243.795 99.2438C244.372 98.859 245.193 98.6666 246.259 98.6666C247.177 98.6666 248.013 98.8886 248.768 99.3326C249.537 99.7766 250.151 100.42 250.61 101.264C251.084 102.093 251.321 103.099 251.321 104.283V104.616C251.321 105.8 251.091 106.814 250.632 107.658C250.174 108.486 249.559 109.123 248.79 109.567C248.02 110.011 247.177 110.233 246.259 110.233C245.549 110.233 244.949 110.144 244.461 109.966C243.972 109.789 243.58 109.567 243.284 109.3C242.988 109.019 242.751 108.731 242.574 108.435H242.219V114.362H239.932ZM245.593 108.235C246.599 108.235 247.421 107.917 248.057 107.28C248.694 106.644 249.012 105.734 249.012 104.55V104.35C249.012 103.181 248.686 102.278 248.035 101.641C247.399 101.005 246.585 100.687 245.593 100.687C244.616 100.687 243.802 101.005 243.151 101.641C242.515 102.278 242.196 103.181 242.196 104.35V104.55C242.196 105.734 242.515 106.644 243.151 107.28C243.802 107.917 244.616 108.235 245.593 108.235ZM253.488 109.922V98.9774H255.73V100.265H256.085C256.263 99.8062 256.544 99.4732 256.929 99.266C257.329 99.044 257.817 98.933 258.394 98.933H259.704V100.998H258.305C257.565 100.998 256.959 101.205 256.485 101.619C256.011 102.019 255.775 102.64 255.775 103.484V109.922H253.488ZM264.5 110.233C263.716 110.233 263.013 110.1 262.391 109.833C261.784 109.567 261.296 109.175 260.926 108.657C260.571 108.139 260.393 107.51 260.393 106.77C260.393 106.015 260.571 105.393 260.926 104.905C261.296 104.402 261.792 104.024 262.413 103.773C263.05 103.521 263.768 103.395 264.567 103.395H267.897V102.685C267.897 102.048 267.704 101.538 267.32 101.153C266.935 100.768 266.343 100.576 265.544 100.576C264.759 100.576 264.16 100.761 263.745 101.131C263.331 101.501 263.057 101.982 262.924 102.574L260.793 101.886C260.97 101.294 261.252 100.761 261.636 100.287C262.036 99.7988 262.561 99.4066 263.213 99.1106C263.864 98.8146 264.648 98.6666 265.566 98.6666C266.987 98.6666 268.104 99.0292 268.918 99.7544C269.732 100.48 270.139 101.508 270.139 102.84V107.347C270.139 107.791 270.346 108.013 270.761 108.013H271.693V109.922H269.984C269.466 109.922 269.044 109.789 268.718 109.522C268.393 109.256 268.23 108.893 268.23 108.435V108.368H267.897C267.778 108.59 267.601 108.849 267.364 109.145C267.127 109.441 266.779 109.7 266.321 109.922C265.862 110.129 265.255 110.233 264.5 110.233ZM264.833 108.346C265.751 108.346 266.491 108.087 267.053 107.569C267.616 107.036 267.897 106.311 267.897 105.393V105.171H264.7C264.093 105.171 263.605 105.304 263.235 105.571C262.865 105.822 262.68 106.2 262.68 106.703C262.68 107.206 262.872 107.606 263.257 107.902C263.642 108.198 264.167 108.346 264.833 108.346ZM264.234 97.6454L265.899 94.4708H268.541L266.298 97.6454H264.234ZM276.598 109.922C275.932 109.922 275.4 109.722 275 109.323C274.615 108.923 274.423 108.39 274.423 107.724V100.909H271.404V98.9774H274.423V95.3588H276.709V98.9774H279.973V100.909H276.709V107.325C276.709 107.769 276.917 107.991 277.331 107.991H279.618V109.922H276.598ZM281.993 109.922V98.9774H284.28V109.922H281.993ZM283.148 97.49C282.704 97.49 282.326 97.3494 282.015 97.0682C281.719 96.7722 281.571 96.3948 281.571 95.936C281.571 95.4772 281.719 95.1072 282.015 94.826C282.326 94.53 282.704 94.382 283.148 94.382C283.606 94.382 283.984 94.53 284.28 94.826C284.576 95.1072 284.724 95.4772 284.724 95.936C284.724 96.3948 284.576 96.7722 284.28 97.0682C283.984 97.3494 283.606 97.49 283.148 97.49ZM292.091 110.233C291.04 110.233 290.086 110.011 289.227 109.567C288.384 109.123 287.71 108.479 287.207 107.635C286.719 106.792 286.475 105.778 286.475 104.594V104.305C286.475 103.121 286.719 102.115 287.207 101.286C287.71 100.443 288.384 99.7988 289.227 99.3548C290.086 98.896 291.04 98.6666 292.091 98.6666C293.142 98.6666 294.037 98.859 294.777 99.2438C295.517 99.6286 296.109 100.139 296.553 100.776C297.012 101.412 297.308 102.115 297.441 102.885L295.221 103.351C295.147 102.862 294.992 102.418 294.755 102.019C294.518 101.619 294.185 101.301 293.756 101.064C293.327 100.827 292.787 100.709 292.136 100.709C291.499 100.709 290.922 100.857 290.404 101.153C289.901 101.434 289.501 101.849 289.205 102.396C288.909 102.929 288.761 103.58 288.761 104.35V104.55C288.761 105.319 288.909 105.978 289.205 106.525C289.501 107.073 289.901 107.487 290.404 107.769C290.922 108.05 291.499 108.19 292.136 108.19C293.098 108.19 293.83 107.946 294.333 107.458C294.837 106.955 295.155 106.318 295.288 105.549L297.508 106.059C297.33 106.814 297.012 107.51 296.553 108.146C296.109 108.782 295.517 109.293 294.777 109.678C294.037 110.048 293.142 110.233 292.091 110.233ZM302.876 110.233C302.091 110.233 301.388 110.1 300.767 109.833C300.16 109.567 299.672 109.175 299.302 108.657C298.946 108.139 298.769 107.51 298.769 106.77C298.769 106.015 298.946 105.393 299.302 104.905C299.672 104.402 300.167 104.024 300.789 103.773C301.425 103.521 302.143 103.395 302.942 103.395H306.272V102.685C306.272 102.048 306.08 101.538 305.695 101.153C305.31 100.768 304.718 100.576 303.919 100.576C303.135 100.576 302.535 100.761 302.121 101.131C301.707 101.501 301.433 101.982 301.3 102.574L299.168 101.886C299.346 101.294 299.627 100.761 300.012 100.287C300.412 99.7988 300.937 99.4066 301.588 99.1106C302.239 98.8146 303.024 98.6666 303.941 98.6666C305.362 98.6666 306.48 99.0292 307.294 99.7544C308.108 100.48 308.515 101.508 308.515 102.84V107.347C308.515 107.791 308.722 108.013 309.136 108.013H310.069V109.922H308.359C307.841 109.922 307.419 109.789 307.094 109.522C306.768 109.256 306.605 108.893 306.605 108.435V108.368H306.272C306.154 108.59 305.976 108.849 305.74 109.145C305.503 109.441 305.155 109.7 304.696 109.922C304.237 110.129 303.631 110.233 302.876 110.233ZM303.209 108.346C304.126 108.346 304.866 108.087 305.429 107.569C305.991 107.036 306.272 106.311 306.272 105.393V105.171H303.076C302.469 105.171 301.98 105.304 301.61 105.571C301.24 105.822 301.055 106.2 301.055 106.703C301.055 107.206 301.248 107.606 301.633 107.902C302.017 108.198 302.543 108.346 303.209 108.346Z" fill="black"/>
<path d="M252.851 442.948V427.408H257.357L260.754 441.35H261.109L264.506 427.408H269.012V442.948H266.681V429.095H266.326L262.952 442.948H258.911L255.537 429.095H255.182V442.948H252.851ZM275.051 443.259C274.267 443.259 273.564 443.126 272.942 442.859C272.335 442.593 271.847 442.201 271.477 441.683C271.122 441.165 270.944 440.536 270.944 439.796C270.944 439.041 271.122 438.419 271.477 437.931C271.847 437.428 272.343 437.05 272.964 436.799C273.601 436.547 274.319 436.421 275.118 436.421H278.448V435.711C278.448 435.074 278.255 434.564 277.871 434.179C277.486 433.794 276.894 433.602 276.095 433.602C275.31 433.602 274.711 433.787 274.296 434.157C273.882 434.527 273.608 435.008 273.475 435.6L271.344 434.912C271.521 434.32 271.803 433.787 272.187 433.313C272.587 432.825 273.112 432.433 273.764 432.137C274.415 431.841 275.199 431.693 276.117 431.693C277.538 431.693 278.655 432.055 279.469 432.78C280.283 433.506 280.69 434.534 280.69 435.866V440.373C280.69 440.817 280.897 441.039 281.312 441.039H282.244V442.948H280.535C280.017 442.948 279.595 442.815 279.269 442.548C278.944 442.282 278.781 441.919 278.781 441.461V441.394H278.448C278.329 441.616 278.152 441.875 277.915 442.171C277.678 442.467 277.33 442.726 276.872 442.948C276.413 443.155 275.806 443.259 275.051 443.259ZM275.384 441.372C276.302 441.372 277.042 441.113 277.604 440.595C278.167 440.062 278.448 439.337 278.448 438.419V438.197H275.251C274.644 438.197 274.156 438.33 273.786 438.597C273.416 438.848 273.231 439.226 273.231 439.729C273.231 440.232 273.423 440.632 273.808 440.928C274.193 441.224 274.718 441.372 275.384 441.372ZM273.741 430.871L272.409 430.072L273.12 428.807C273.312 428.466 273.549 428.215 273.83 428.052C274.126 427.874 274.452 427.785 274.807 427.785C275.133 427.785 275.414 427.852 275.651 427.985C275.887 428.104 276.132 428.289 276.383 428.54C276.546 428.688 276.701 428.829 276.849 428.962C276.997 429.095 277.16 429.162 277.338 429.162C277.53 429.162 277.686 429.103 277.804 428.984C277.937 428.851 278.048 428.71 278.137 428.562L278.581 427.808L279.913 428.629L279.203 429.894C279.01 430.22 278.766 430.472 278.47 430.649C278.189 430.827 277.871 430.916 277.515 430.916C277.19 430.916 276.909 430.856 276.672 430.738C276.435 430.605 276.191 430.412 275.939 430.161C275.776 429.998 275.621 429.857 275.473 429.739C275.34 429.606 275.177 429.539 274.985 429.539C274.792 429.539 274.637 429.606 274.518 429.739C274.4 429.857 274.289 429.991 274.185 430.139L273.741 430.871ZM288.669 443.259C287.574 443.259 286.597 443.037 285.739 442.593C284.895 442.134 284.229 441.483 283.741 440.639C283.253 439.796 283.008 438.797 283.008 437.642V437.309C283.008 436.155 283.253 435.163 283.741 434.334C284.229 433.491 284.895 432.84 285.739 432.381C286.597 431.922 287.574 431.693 288.669 431.693C289.765 431.693 290.741 431.922 291.6 432.381C292.458 432.84 293.132 433.491 293.62 434.334C294.108 435.163 294.353 436.155 294.353 437.309V437.642C294.353 438.797 294.108 439.796 293.62 440.639C293.132 441.483 292.458 442.134 291.6 442.593C290.741 443.037 289.765 443.259 288.669 443.259ZM288.669 441.216C289.676 441.216 290.49 440.898 291.111 440.262C291.748 439.611 292.066 438.715 292.066 437.576V437.376C292.066 436.236 291.755 435.348 291.134 434.712C290.512 434.061 289.691 433.735 288.669 433.735C287.678 433.735 286.864 434.061 286.227 434.712C285.606 435.348 285.295 436.236 285.295 437.376V437.576C285.295 438.715 285.606 439.611 286.227 440.262C286.864 440.898 287.678 441.216 288.669 441.216ZM227.418 468.948V458.003H229.66V459.646H230.015C230.222 459.202 230.592 458.788 231.125 458.403C231.658 458.018 232.45 457.826 233.5 457.826C234.329 457.826 235.062 458.011 235.698 458.381C236.349 458.751 236.86 459.276 237.23 459.957C237.6 460.623 237.785 461.43 237.785 462.377V468.948H235.498V462.554C235.498 461.607 235.262 460.912 234.788 460.468C234.314 460.009 233.663 459.779 232.834 459.779C231.887 459.779 231.125 460.09 230.548 460.712C229.985 461.333 229.704 462.236 229.704 463.42V468.948H227.418ZM243.806 469.259C243.022 469.259 242.319 469.126 241.697 468.859C241.091 468.593 240.602 468.201 240.232 467.683C239.877 467.165 239.699 466.536 239.699 465.796C239.699 465.041 239.877 464.419 240.232 463.931C240.602 463.428 241.098 463.05 241.72 462.799C242.356 462.547 243.074 462.421 243.873 462.421H247.203V461.711C247.203 461.074 247.011 460.564 246.626 460.179C246.241 459.794 245.649 459.602 244.85 459.602C244.065 459.602 243.466 459.787 243.052 460.157C242.637 460.527 242.363 461.008 242.23 461.6L240.099 460.912C240.277 460.32 240.558 459.787 240.943 459.313C241.342 458.825 241.868 458.433 242.519 458.137C243.17 457.841 243.954 457.693 244.872 457.693C246.293 457.693 247.41 458.055 248.224 458.78C249.038 459.506 249.445 460.534 249.445 461.866V466.373C249.445 466.817 249.652 467.039 250.067 467.039H250.999V468.948H249.29C248.772 468.948 248.35 468.815 248.024 468.548C247.699 468.282 247.536 467.919 247.536 467.461V467.394H247.203C247.085 467.616 246.907 467.875 246.67 468.171C246.433 468.467 246.086 468.726 245.627 468.948C245.168 469.155 244.561 469.259 243.806 469.259ZM244.139 467.372C245.057 467.372 245.797 467.113 246.359 466.595C246.922 466.062 247.203 465.337 247.203 464.419V464.197H244.006C243.399 464.197 242.911 464.33 242.541 464.597C242.171 464.848 241.986 465.226 241.986 465.729C241.986 466.232 242.178 466.632 242.563 466.928C242.948 467.224 243.473 467.372 244.139 467.372ZM257.549 468.948V458.003H259.791V459.291H260.146C260.354 458.906 260.687 458.566 261.145 458.27C261.604 457.974 262.226 457.826 263.01 457.826C263.824 457.826 264.475 457.996 264.964 458.336C265.467 458.662 265.844 459.084 266.096 459.602H266.451C266.703 459.099 267.065 458.677 267.539 458.336C268.027 457.996 268.716 457.826 269.604 457.826C270.314 457.826 270.943 457.974 271.491 458.27C272.038 458.551 272.475 458.98 272.8 459.557C273.126 460.12 273.289 460.823 273.289 461.666V468.948H271.002V461.844C271.002 461.178 270.817 460.667 270.447 460.312C270.092 459.942 269.581 459.757 268.915 459.757C268.205 459.757 267.635 459.987 267.206 460.445C266.777 460.904 266.562 461.563 266.562 462.421V468.948H264.276V461.844C264.276 461.178 264.091 460.667 263.721 460.312C263.365 459.942 262.855 459.757 262.189 459.757C261.478 459.757 260.909 459.987 260.479 460.445C260.05 460.904 259.836 461.563 259.836 462.421V468.948H257.549ZM279.314 469.259C278.53 469.259 277.827 469.126 277.205 468.859C276.598 468.593 276.11 468.201 275.74 467.683C275.385 467.165 275.207 466.536 275.207 465.796C275.207 465.041 275.385 464.419 275.74 463.931C276.11 463.428 276.606 463.05 277.227 462.799C277.864 462.547 278.582 462.421 279.381 462.421H282.711V461.711C282.711 461.074 282.518 460.564 282.134 460.179C281.749 459.794 281.157 459.602 280.358 459.602C279.573 459.602 278.974 459.787 278.559 460.157C278.145 460.527 277.871 461.008 277.738 461.6L275.607 460.912C275.784 460.32 276.066 459.787 276.45 459.313C276.85 458.825 277.375 458.433 278.027 458.137C278.678 457.841 279.462 457.693 280.38 457.693C281.801 457.693 282.918 458.055 283.732 458.78C284.546 459.506 284.953 460.534 284.953 461.866V466.373C284.953 466.817 285.16 467.039 285.575 467.039H286.507V468.948H284.798C284.28 468.948 283.858 468.815 283.532 468.548C283.207 468.282 283.044 467.919 283.044 467.461V467.394H282.711C282.592 467.616 282.415 467.875 282.178 468.171C281.941 468.467 281.593 468.726 281.135 468.948C280.676 469.155 280.069 469.259 279.314 469.259ZM279.647 467.372C280.565 467.372 281.305 467.113 281.867 466.595C282.43 466.062 282.711 465.337 282.711 464.419V464.197H279.514C278.907 464.197 278.419 464.33 278.049 464.597C277.679 464.848 277.494 465.226 277.494 465.729C277.494 466.232 277.686 466.632 278.071 466.928C278.456 467.224 278.981 467.372 279.647 467.372ZM292.462 469.259C291.071 469.259 289.916 468.948 288.999 468.326C288.081 467.705 287.519 466.765 287.312 465.507L289.443 464.996C289.561 465.603 289.761 466.084 290.042 466.439C290.323 466.795 290.671 467.046 291.086 467.194C291.515 467.342 291.974 467.416 292.462 467.416C293.187 467.416 293.742 467.276 294.127 466.994C294.527 466.713 294.726 466.351 294.726 465.907C294.726 465.463 294.541 465.137 294.171 464.93C293.801 464.723 293.254 464.552 292.529 464.419L291.774 464.286C291.034 464.153 290.36 463.96 289.754 463.709C289.147 463.457 288.666 463.109 288.311 462.665C287.955 462.221 287.778 461.652 287.778 460.956C287.778 459.92 288.163 459.121 288.932 458.558C289.702 457.981 290.723 457.693 291.996 457.693C293.224 457.693 294.231 457.974 295.015 458.536C295.814 459.084 296.332 459.831 296.569 460.778L294.438 461.378C294.305 460.712 294.023 460.246 293.594 459.979C293.165 459.698 292.632 459.557 291.996 459.557C291.374 459.557 290.886 459.676 290.531 459.913C290.175 460.135 289.998 460.453 289.998 460.867C289.998 461.311 290.168 461.637 290.508 461.844C290.864 462.051 291.337 462.207 291.929 462.31L292.706 462.443C293.491 462.577 294.208 462.762 294.86 462.998C295.511 463.235 296.021 463.576 296.391 464.02C296.776 464.464 296.969 465.056 296.969 465.796C296.969 466.891 296.562 467.742 295.748 468.349C294.934 468.955 293.838 469.259 292.462 469.259ZM303.46 469.259C302.069 469.259 300.914 468.948 299.997 468.326C299.079 467.705 298.517 466.765 298.309 465.507L300.441 464.996C300.559 465.603 300.759 466.084 301.04 466.439C301.321 466.795 301.669 467.046 302.083 467.194C302.513 467.342 302.971 467.416 303.46 467.416C304.185 467.416 304.74 467.276 305.125 466.994C305.524 466.713 305.724 466.351 305.724 465.907C305.724 465.463 305.539 465.137 305.169 464.93C304.799 464.723 304.252 464.552 303.526 464.419L302.772 464.286C302.032 464.153 301.358 463.96 300.751 463.709C300.145 463.457 299.664 463.109 299.308 462.665C298.953 462.221 298.776 461.652 298.776 460.956C298.776 459.92 299.16 459.121 299.93 458.558C300.7 457.981 301.721 457.693 302.994 457.693C304.222 457.693 305.228 457.974 306.013 458.536C306.812 459.084 307.33 459.831 307.567 460.778L305.436 461.378C305.302 460.712 305.021 460.246 304.592 459.979C304.163 459.698 303.63 459.557 302.994 459.557C302.372 459.557 301.884 459.676 301.528 459.913C301.173 460.135 300.996 460.453 300.996 460.867C300.996 461.311 301.166 461.637 301.506 461.844C301.861 462.051 302.335 462.207 302.927 462.31L303.704 462.443C304.488 462.577 305.206 462.762 305.857 462.998C306.509 463.235 307.019 463.576 307.389 464.02C307.774 464.464 307.966 465.056 307.966 465.796C307.966 466.891 307.559 467.742 306.745 468.349C305.931 468.955 304.836 469.259 303.46 469.259ZM313.283 469.259C312.498 469.259 311.795 469.126 311.174 468.859C310.567 468.593 310.079 468.201 309.709 467.683C309.353 467.165 309.176 466.536 309.176 465.796C309.176 465.041 309.353 464.419 309.709 463.931C310.079 463.428 310.574 463.05 311.196 462.799C311.832 462.547 312.55 462.421 313.349 462.421H316.679V461.711C316.679 461.074 316.487 460.564 316.102 460.179C315.717 459.794 315.125 459.602 314.326 459.602C313.542 459.602 312.942 459.787 312.528 460.157C312.114 460.527 311.84 461.008 311.707 461.6L309.575 460.912C309.753 460.32 310.034 459.787 310.419 459.313C310.819 458.825 311.344 458.433 311.995 458.137C312.646 457.841 313.431 457.693 314.348 457.693C315.769 457.693 316.887 458.055 317.701 458.78C318.515 459.506 318.922 460.534 318.922 461.866V466.373C318.922 466.817 319.129 467.039 319.543 467.039H320.476V468.948H318.766C318.248 468.948 317.826 468.815 317.501 468.548C317.175 468.282 317.012 467.919 317.012 467.461V467.394H316.679C316.561 467.616 316.383 467.875 316.147 468.171C315.91 468.467 315.562 468.726 315.103 468.948C314.644 469.155 314.038 469.259 313.283 469.259ZM313.616 467.372C314.533 467.372 315.273 467.113 315.836 466.595C316.398 466.062 316.679 465.337 316.679 464.419V464.197H313.483C312.876 464.197 312.387 464.33 312.017 464.597C311.647 464.848 311.462 465.226 311.462 465.729C311.462 466.232 311.655 466.632 312.04 466.928C312.424 467.224 312.95 467.372 313.616 467.372Z" fill="black"/>
<defs>
<linearGradient id="paint0_linear_2004_2778" x1="273.538" y1="-6.10628e-05" x2="274" y2="273" gradientUnits="userSpaceOnUse">
<stop stop-color="white"/>
<stop offset="1" stop-color="white" stop-opacity="0"/>
</linearGradient>
</defs>
</svg>
