<svg width="245" height="248" viewBox="0 0 245 248" fill="none" xmlns="http://www.w3.org/2000/svg">
<mask id="path-1-outside-1_5464_6896" maskUnits="userSpaceOnUse" x="0" y="-33" width="281" height="281" fill="black">
<rect fill="white" y="-33" width="281" height="281"/>
<path fill-rule="evenodd" clip-rule="evenodd" d="M1.00064 106.798C0.776916 33.0326 59.3968 -28.3333 133.681 -31.8386C215.32 -35.6961 282.465 30.0976 279.931 110.798C277.561 186.083 214.254 245.881 138.329 244.73C117.097 244.408 97.0206 239.375 79.1018 230.647C78.6399 230.422 78.1149 230.361 77.6148 230.479L7.94459 246.851C4.08134 247.759 0.574136 244.381 1.37478 240.523L16.026 169.98C16.129 169.484 16.0582 168.968 15.8289 168.516C6.40301 149.947 1.06833 128.988 1.00064 106.798ZM181.181 128.679L208.203 136.374C214.672 138.218 217.524 145.709 213.915 151.353C208.628 159.626 200.244 169.728 189.754 172.247C171.258 176.69 142.853 172.355 107.384 139.513C76.6843 111.088 68.5636 87.4166 70.4819 68.6369C71.5682 57.9849 80.5161 48.3726 88.057 42.0447C93.1988 37.7311 101.068 39.5102 103.791 45.6181L115.159 71.1223C116.652 74.4747 116.176 78.3719 113.916 81.2709L108.149 88.6735C105.716 91.7992 105.387 96.0751 107.371 99.4973C114.234 111.356 141.124 135.072 153.906 140.203C157.595 141.683 161.821 140.779 164.607 137.961L171.216 131.285C173.804 128.669 177.631 127.669 181.181 128.679Z"/>
</mask>
<path d="M217.737 182.984L217.953 183.202L217.737 182.984ZM91.8851 203.418L91.7489 203.693L91.749 203.693L91.8851 203.418ZM43.1441 155.554L43.4174 155.413L43.4173 155.413L43.1441 155.554ZM249.727 106.367H249.42V106.367L249.727 106.367ZM47.8165 165.709L48.1173 165.772L47.8165 165.709ZM47.6175 164.247L47.8907 164.107L47.6175 164.247ZM82.7901 198.922L82.9262 198.646L82.7901 198.922ZM81.3037 198.751L81.3739 199.05L81.3037 198.751ZM42.2625 207.924L42.3328 208.224L42.2625 207.924ZM39.5903 205.321L39.2895 205.258L39.5903 205.321ZM217.52 182.766C196.949 203.171 169.596 214.41 140.5 214.41V215.025C169.757 215.025 197.266 203.722 217.953 183.202L217.52 182.766ZM140.5 214.41C123.464 214.41 107.153 210.618 92.0212 203.142L91.749 203.693C106.967 211.211 123.371 215.025 140.5 215.025V214.41ZM92.0212 203.142L82.9262 198.646L82.6539 199.197L91.7489 203.693L92.0212 203.142ZM81.2334 198.452L42.1922 207.625L42.3328 208.224L81.3739 199.05L81.2334 198.452ZM39.8912 205.383L48.1173 165.772L47.5156 165.647L39.2895 205.258L39.8912 205.383ZM47.8907 164.107L43.4174 155.413L42.8709 155.694L47.3443 164.388L47.8907 164.107ZM43.4173 155.413C35.5611 140.153 31.578 123.655 31.578 106.37H30.9634C30.9634 123.752 34.9696 140.347 42.8709 155.694L43.4173 155.413ZM31.578 106.37C31.578 77.5103 42.9072 50.3818 63.4784 29.9749L63.0456 29.5386C42.3586 50.0604 30.9634 77.3457 30.9634 106.37H31.578ZM217.519 29.9749C238.091 50.38 249.42 77.5112 249.42 106.367H250.034C250.034 77.3466 238.639 50.0585 217.952 29.5386L217.519 29.9749ZM249.42 106.367C249.422 134.969 237.909 162.542 217.52 182.766L217.953 183.202C238.457 162.864 250.036 135.134 250.034 106.367L249.42 106.367ZM48.1173 165.772C48.2346 165.207 48.1546 164.619 47.8907 164.107L47.3443 164.388C47.5438 164.775 47.6043 165.22 47.5156 165.647L48.1173 165.772ZM82.9262 198.646C82.4016 198.387 81.8031 198.318 81.2334 198.452L81.3739 199.05C81.8047 198.949 82.2572 199.001 82.6539 199.197L82.9262 198.646ZM42.1922 207.625C40.8363 207.944 39.608 206.747 39.8912 205.383L39.2895 205.258C38.9149 207.062 40.5394 208.645 42.3328 208.224L42.1922 207.625ZM133.681 -31.8386L133.71 -31.2247L133.71 -31.2247L133.681 -31.8386ZM1.00064 106.798L0.386104 106.8L0.386104 106.8L1.00064 106.798ZM279.931 110.798L280.545 110.817V110.817L279.931 110.798ZM138.329 244.73L138.338 244.115H138.338L138.329 244.73ZM7.94459 246.851L7.804 246.252H7.80392L7.94459 246.851ZM1.37478 240.523L0.773078 240.398L0.773055 240.398L1.37478 240.523ZM208.203 136.374L208.372 135.783L208.372 135.783L208.203 136.374ZM181.181 128.679L181.35 128.088L181.35 128.088L181.181 128.679ZM213.915 151.353L213.398 151.022L213.398 151.022L213.915 151.353ZM189.754 172.247L189.611 171.649L189.611 171.649L189.754 172.247ZM107.384 139.513L107.801 139.062L107.384 139.513ZM70.4819 68.6369L71.0933 68.6993L71.0933 68.6992L70.4819 68.6369ZM88.057 42.0447L87.662 41.5739L87.6619 41.574L88.057 42.0447ZM103.791 45.6181L104.352 45.3679L104.352 45.3679L103.791 45.6181ZM115.159 71.1223L115.72 70.8722L115.72 70.8721L115.159 71.1223ZM113.916 81.2709L113.432 80.8931L113.432 80.8932L113.916 81.2709ZM108.149 88.6735L107.664 88.2958L107.664 88.296L108.149 88.6735ZM107.371 99.4973L107.903 99.1895L107.903 99.1891L107.371 99.4973ZM153.906 140.203L153.677 140.774L153.678 140.774L153.906 140.203ZM164.607 137.961L164.17 137.529L164.17 137.529L164.607 137.961ZM171.216 131.285L171.653 131.717L171.653 131.717L171.216 131.285ZM16.026 169.98L15.4243 169.855L16.026 169.98ZM15.8289 168.516L15.281 168.795L15.8289 168.516ZM79.1018 230.647L79.3709 230.094L79.1018 230.647ZM77.6148 230.479L77.7553 231.077L77.6148 230.479ZM133.652 -32.4524C59.0426 -28.9318 0.161374 32.7023 0.386104 106.8L1.61517 106.796C1.39246 33.3628 59.7511 -27.7348 133.71 -31.2247L133.652 -32.4524ZM280.545 110.817C283.09 29.754 215.644 -36.3267 133.652 -32.4524L133.71 -31.2247C214.995 -35.0656 281.839 30.4412 279.316 110.778L280.545 110.817ZM138.319 245.344C214.575 246.5 278.164 186.443 280.545 110.817L279.316 110.778C276.957 185.723 213.934 245.261 138.338 244.115L138.319 245.344ZM78.8327 231.199C96.8307 239.966 116.996 245.021 138.319 245.344L138.338 244.115C117.199 243.795 97.2104 238.784 79.3709 230.094L78.8327 231.199ZM8.08517 247.449L77.7553 231.077L77.4742 229.88L7.804 246.252L8.08517 247.449ZM0.773055 240.398C-0.120601 244.705 3.79292 248.458 8.08525 247.449L7.80392 246.252C4.36975 247.06 1.26887 244.058 1.9765 240.648L0.773055 240.398ZM15.4243 169.855L0.773078 240.398L1.97647 240.648L16.6277 170.105L15.4243 169.855ZM0.386104 106.8C0.4541 129.088 5.81264 150.142 15.281 168.795L16.3769 168.238C6.99338 149.753 1.68257 128.887 1.61517 106.796L0.386104 106.8ZM208.372 135.783L181.35 128.088L181.013 129.27L208.035 136.965L208.372 135.783ZM214.433 151.684C218.265 145.691 215.234 137.739 208.372 135.783L208.035 136.965C214.111 138.697 216.783 145.727 213.398 151.022L214.433 151.684ZM189.898 172.845C195.285 171.551 200.097 168.32 204.21 164.403C208.326 160.483 211.773 155.845 214.433 151.684L213.398 151.022C210.77 155.134 207.382 159.684 203.362 163.513C199.339 167.345 194.713 170.424 189.611 171.649L189.898 172.845ZM106.966 139.964C142.537 172.9 171.145 177.349 189.898 172.844L189.611 171.649C171.371 176.031 143.168 171.809 107.801 139.062L106.966 139.964ZM69.8706 68.5744C67.9256 87.6157 76.1857 111.464 106.966 139.964L107.801 139.062C77.1828 110.712 69.2017 87.2174 71.0933 68.6993L69.8706 68.5744ZM87.6619 41.574C83.8692 44.7567 79.7076 48.7773 76.3532 53.3561C73.0012 57.9316 70.4288 63.1007 69.8706 68.5745L71.0933 68.6992C71.6214 63.521 74.066 58.558 77.3447 54.0825C80.6211 49.6102 84.7039 45.6607 88.452 42.5155L87.6619 41.574ZM104.352 45.3679C101.461 38.8824 93.1128 37.0011 87.662 41.5739L88.4519 42.5155C93.2847 38.4611 100.675 40.138 103.23 45.8683L104.352 45.3679ZM115.72 70.8721L104.352 45.3679L103.229 45.8683L114.597 71.3725L115.72 70.8721ZM114.401 81.6488C116.801 78.5708 117.306 74.4322 115.72 70.8722L114.597 71.3724C115.999 74.5172 115.552 78.1729 113.432 80.8931L114.401 81.6488ZM108.634 89.0512L114.401 81.6486L113.432 80.8932L107.664 88.2958L108.634 89.0512ZM107.903 99.1891C106.047 95.9879 106.351 91.983 108.634 89.051L107.664 88.296C105.08 91.6154 104.728 96.1622 106.84 99.8055L107.903 99.1891ZM154.135 139.633C147.849 137.109 137.998 129.96 128.824 121.911C119.652 113.863 111.281 105.025 107.903 99.1895L106.839 99.8051C110.325 105.828 118.83 114.777 128.014 122.835C137.196 130.891 147.181 138.166 153.677 140.774L154.135 139.633ZM164.17 137.529C161.556 140.173 157.591 141.02 154.135 139.633L153.678 140.774C157.598 142.346 162.087 141.385 165.044 138.393L164.17 137.529ZM170.779 130.853L164.17 137.529L165.044 138.394L171.653 131.717L170.779 130.853ZM181.35 128.088C177.585 127.017 173.526 128.077 170.779 130.853L171.653 131.717C174.083 129.262 177.678 128.321 181.013 129.27L181.35 128.088ZM16.6277 170.105C16.7594 169.47 16.6685 168.813 16.3769 168.238L15.281 168.795C15.4479 169.123 15.4986 169.497 15.4243 169.855L16.6277 170.105ZM79.3709 230.094C78.7834 229.808 78.1138 229.73 77.4742 229.88L77.7553 231.077C78.116 230.992 78.4964 231.035 78.8327 231.199L79.3709 230.094Z" fill="url(#paint0_linear_5464_6896)" mask="url(#path-1-outside-1_5464_6896)"/>
<defs>
<linearGradient id="paint0_linear_5464_6896" x1="63.6889" y1="93.2834" x2="179.074" y2="241.627" gradientUnits="userSpaceOnUse">
<stop stop-color="#1F2630"/>
<stop offset="1" stop-color="#0E1114"/>
</linearGradient>
</defs>
</svg>
