<svg width="263" height="261" viewBox="0 0 263 261" fill="none" xmlns="http://www.w3.org/2000/svg">
<mask id="path-1-outside-1_5389_5465" maskUnits="userSpaceOnUse" x="0" y="-60.251" width="433" height="321" fill="black">
<rect fill="white" y="-60.251" width="433" height="321"/>
<path fill-rule="evenodd" clip-rule="evenodd" d="M216.5 -59.251C181.569 -59.251 132.669 -57.6801 69.7973 -54.5371C35.7601 -52.8354 8.22584 -26.1461 5.37125 7.91193C2.45701 42.6809 1 73.0876 1 99.1331C1 125.496 2.49273 156.327 5.47821 191.626C8.32304 225.261 35.2585 251.759 68.8457 253.962C122.594 257.488 171.812 259.251 216.5 259.251C261.194 259.251 310.431 257.488 364.208 253.96C397.807 251.757 424.748 225.243 427.579 191.594C430.527 156.557 432 125.737 432 99.1331C432 72.8522 430.562 42.4557 427.685 7.94378C424.845 -26.1279 397.306 -52.8343 363.255 -54.536C300.353 -57.6789 251.435 -59.251 216.5 -59.251ZM182.166 150.133V49.8689C182.166 47.9268 182.747 46.029 183.832 44.4174C186.85 39.9404 192.936 38.7504 197.423 41.7617L272.802 92.3244C273.875 93.0447 274.795 93.9691 275.508 95.045C278.49 99.546 277.25 105.607 272.738 108.582L197.359 158.283C195.758 159.339 193.879 159.902 191.959 159.902C186.551 159.902 182.166 155.528 182.166 150.133Z"/>
</mask>
<path d="M69.7973 -54.5371L69.7474 -55.5359L69.7474 -55.5359L69.7973 -54.5371ZM5.37125 7.91193L6.36776 7.99546V7.99545L5.37125 7.91193ZM5.47821 191.626L4.48176 191.71H4.48176L5.47821 191.626ZM68.8457 253.962L68.7803 254.96H68.7803L68.8457 253.962ZM364.208 253.96L364.143 252.962H364.143L364.208 253.96ZM427.579 191.594L428.575 191.678L427.579 191.594ZM427.685 7.94378L428.682 7.86073V7.86071L427.685 7.94378ZM363.255 -54.536L363.305 -55.5348L363.305 -55.5348L363.255 -54.536ZM183.832 44.4174L183.003 43.8583L183.002 43.8588L183.832 44.4174ZM197.423 41.7617L196.866 42.5921L196.866 42.5922L197.423 41.7617ZM272.802 92.3244L273.36 91.4942L273.359 91.4939L272.802 92.3244ZM275.508 95.045L276.342 94.4927L276.342 94.4927L275.508 95.045ZM272.738 108.582L272.188 107.747L272.188 107.747L272.738 108.582ZM197.359 158.283L197.91 159.118L197.91 159.118L197.359 158.283ZM69.8473 -53.5384C132.713 -56.681 181.594 -58.251 216.5 -58.251V-60.251C181.545 -60.251 132.625 -58.6791 69.7474 -55.5359L69.8473 -53.5384ZM6.36776 7.99545C9.1807 -25.5658 36.3124 -51.8618 69.8473 -53.5384L69.7474 -55.5359C35.2077 -53.8091 7.27097 -26.7265 4.37475 7.82841L6.36776 7.99545ZM2 99.1331C2 73.123 3.45512 42.7453 6.36776 7.99546L4.37475 7.82841C1.4589 42.6165 0 73.0522 0 99.1331H2ZM6.47465 191.542C3.4908 156.262 2 125.46 2 99.1331H0C0 125.532 1.49467 156.392 4.48176 191.71L6.47465 191.542ZM68.9112 252.965C35.8197 250.794 9.27798 224.686 6.47465 191.542L4.48176 191.71C7.3681 225.836 34.6973 252.724 68.7803 254.96L68.9112 252.965ZM216.5 258.251C171.837 258.251 122.642 256.489 68.9112 252.965L68.7803 254.96C122.546 258.487 171.786 260.251 216.5 260.251V258.251ZM364.143 252.962C310.383 256.489 261.169 258.251 216.5 258.251V260.251C261.22 260.251 310.479 258.487 364.274 254.958L364.143 252.962ZM426.582 191.51C423.793 224.668 397.246 250.792 364.143 252.962L364.274 254.958C398.368 252.722 425.703 225.817 428.575 191.678L426.582 191.51ZM431 99.1331C431 125.702 429.529 156.492 426.582 191.51L428.575 191.678C431.525 156.621 433 125.772 433 99.1331H431ZM426.689 8.02683C429.564 42.5193 431 72.887 431 99.1331H433C433 72.8174 431.56 42.3922 428.682 7.86073L426.689 8.02683ZM363.205 -53.5373C396.753 -51.8607 423.89 -25.5478 426.689 8.02685L428.682 7.86071C425.8 -26.7081 397.858 -53.8079 363.305 -55.5348L363.205 -53.5373ZM216.5 -58.251C251.41 -58.251 300.309 -56.6799 363.206 -53.5373L363.305 -55.5348C300.397 -58.678 251.459 -60.251 216.5 -60.251V-58.251ZM181.166 49.8689V150.133H183.166V49.8689H181.166ZM183.002 43.8588C181.806 45.6352 181.166 47.7273 181.166 49.8689H183.166C183.166 48.1262 183.687 46.4229 184.661 44.976L183.002 43.8588ZM197.981 40.9313C193.035 37.6131 186.33 38.9237 183.003 43.8583L184.661 44.9764C187.371 40.957 192.836 39.8878 196.866 42.5921L197.981 40.9313ZM273.359 91.4939L197.98 40.9312L196.866 42.5922L272.245 93.1549L273.359 91.4939ZM276.342 94.4927C275.556 93.3064 274.542 92.2878 273.36 91.4942L272.245 93.1546C273.209 93.8017 274.034 94.6317 274.674 95.5974L276.342 94.4927ZM273.289 109.417C278.262 106.138 279.629 99.4554 276.342 94.4927L274.674 95.5973C277.35 99.6365 276.239 105.077 272.188 107.747L273.289 109.417ZM197.91 159.118L273.289 109.417L272.188 107.747L196.809 157.448L197.91 159.118ZM191.959 160.902C194.075 160.902 196.144 160.281 197.91 159.118L196.809 157.448C195.371 158.396 193.684 158.902 191.959 158.902V160.902ZM181.166 150.133C181.166 156.083 186.001 160.902 191.959 160.902V158.902C187.101 158.902 183.166 154.974 183.166 150.133H181.166Z" fill="url(#paint0_linear_5389_5465)" mask="url(#path-1-outside-1_5389_5465)"/>
<defs>
<linearGradient id="paint0_linear_5389_5465" x1="58" y1="4" x2="247.402" y2="336.042" gradientUnits="userSpaceOnUse">
<stop stop-color="#1F2630"/>
<stop offset="1" stop-color="#0E1114"/>
</linearGradient>
</defs>
</svg>
